<svg width="173" height="173" xmlns="http://www.w3.org/2000/svg"><g fill="none" fill-rule="evenodd"><path d="M172.503 82.634c0 45.632-36.993 82.624-82.625 82.624-45.63 0-82.623-36.992-82.623-82.624S44.247.01 89.878.01c45.632 0 82.625 36.992 82.625 82.624" fill="#FFE7E6"/><path d="M161.227 155.65l.12-5.819a1.368 1.368 0 00-.395-.976s-.615-.413-.982-.413h-20.874l.113-118.197c0-8.892-7.237-16.126-16.133-16.126H19.77c-8.895 0-16.132 7.234-16.132 16.126V37.5c0 .758.617-.8 1.376-.8h28.139v118.892c.096 8.464 6.734 15.452 15.112 15.976l.264.016.252.076c.502.149 1.384.046 2.16-.042l.293-.019h93.237l.283.073c.117.03.234.046.34.046 8.897 0 16.133-7.207 16.133-16.067" fill="#FFF"/><path d="M123.627 15.315c7.767 0 14.085 6.316 14.085 14.078l-.114 118.593H63.793c-.11 0-.214.02-.335.063a.846.846 0 00-.261.172.814.814 0 00-.184.288l-.05.127a.527.527 0 00-.044.217l-.12 7.635c.002 6.906-5.177 12.878-12.047 13.883l-.168.025-1.75.005c-7.766 0-14.085-6.315-14.085-14.078V29.393c0-3.446-1.097-6.727-3.173-9.49l-3.445-4.588h95.496zm36.521 134.417l-.117 6.742c-.01 7.274-5.704 13.428-12.962 14.001l-.406.032-.399-.083a.989.989 0 00-.199-.023H58.076l3.392-4.574a15.552 15.552 0 003.086-9.324l.103-6.77h95.491zM47.832 172.116l.383.038.256.076c.405.119 1.275.02 1.976-.06l.33-.022h94.603l.35.089c.076.02.153.03.215.03 8.73 0 15.832-7.072 15.832-15.764v-.008l.12-7.63a.856.856 0 00-.248-.614.865.865 0 00-.625-.265h-21.68l.115-118.593c0-8.725-7.102-15.824-15.832-15.824H18.917c-8.729 0-15.83 7.099-15.83 15.824v7.352c0 .481.39.873.872.873h29.044v118.825c.094 8.272 6.607 15.16 14.83 15.673z" fill="#000"/><path fill="#F5B333" d="M120.484 89.426l-7.726-7.935-7.726 7.935V62.489h15.452z"/><path d="M127.452 58.97c0 8.116-6.579 14.694-14.694 14.693-8.114 0-14.693-6.577-14.693-14.693 0-8.115 6.579-14.693 14.694-14.693 8.114 0 14.693 6.579 14.693 14.693" fill="#F5B333"/><path d="M123.54 59.264a7.348 7.348 0 11-14.696 0 7.348 7.348 0 0114.697 0" fill="#FFF"/><path d="M123.54 59.264a7.348 7.348 0 11-14.696 0 7.348 7.348 0 0114.697 0z" stroke="#000" stroke-width="1.068"/><path d="M49.403 50.72H78.33" fill="#FFF"/><path d="M49.403 50.72H78.33" stroke="#000" stroke-width="1.068"/><path d="M49.403 57.463h22.38" fill="#FFF"/><path d="M49.403 57.463h22.38" stroke="#000" stroke-width="1.068"/><path d="M49.403 73.588H78.33" fill="#FFF"/><path d="M49.403 73.588H78.33" stroke="#000" stroke-width="1.068"/><path d="M49.403 80.33h41.241" fill="#FFF"/><path d="M49.403 80.33h41.241" stroke="#000" stroke-width="1.068"/><path d="M49.403 95.576H78.33" fill="#FFF"/><path d="M49.403 95.576H78.33" stroke="#000" stroke-width="1.068"/><path d="M49.403 102.32h22.38" fill="#FFF"/><path d="M49.403 102.32h22.38" stroke="#000" stroke-width="1.068"/><path d="M49.403 118.444H78.33" fill="#FFF"/><path d="M49.403 118.444H78.33" stroke="#000" stroke-width="1.068"/><g><path d="M49.403 125.188h41.241" fill="#FFF"/><path d="M49.403 125.188h41.241" stroke="#000" stroke-width="1.068"/></g><path d="M6.634 154.441h44.939M6.633 138.777h42.29M1.87 146.609h44.518" stroke="#000" stroke-width="2.571" stroke-linecap="round" stroke-linejoin="round" stroke-dasharray="0.011,8.571"/><path stroke="#000" stroke-width="1.068" d="M123.611 71.4v18.026l-7.726-7.935-7.725 7.935v-18.18"/><path d="M130.58 58.97c0 8.116-6.58 14.694-14.695 14.693-8.114 0-14.693-6.577-14.693-14.693 0-8.115 6.579-14.693 14.694-14.693 8.114 0 14.693 6.579 14.693 14.693z" stroke="#000" stroke-width="1.068"/><path d="M53.075 171.141s10.241-4.762 10.716-11.906c.477-7.145.867-9.503.867-9.503l96.365-1.746s.883 14.106-3.402 18.155c-4.287 4.048-6.43 5.715-17.862 5.24-11.43-.477-86.684-.24-86.684-.24" fill="#0164EE"/></g></svg>