<svg width="76" height="76" xmlns="http://www.w3.org/2000/svg"><g fill="none" fill-rule="evenodd"><path fill="#FFF" d="M0 0h76v76H0z"/><path fill="#FFF" d="M61.599 66.839H14V9.17h38.948l8.651 9.956z"/><path stroke="#000" stroke-width=".947" d="M61.599 66.839H14V9.17h38.948l8.651 9.956z"/><path stroke="#000" stroke-width=".947" d="M52.629 9v10.036h8.765M52.97 30.979H24.339a1.986 1.986 0 01-1.98-1.98c0-1.09.89-1.98 1.98-1.98h28.63c1.09 0 1.98.89 1.98 1.98 0 1.088-.89 1.98-1.98 1.98zM52.97 54.863H24.339a1.986 1.986 0 01-1.98-1.98c0-1.09.89-1.98 1.98-1.98h28.63c1.09 0 1.98.89 1.98 1.98 0 1.089-.89 1.98-1.98 1.98z"/><path d="M52.97 42.92H24.339a1.986 1.986 0 01-1.98-1.98c0-1.088.89-1.98 1.98-1.98h28.63c1.09 0 1.98.892 1.98 1.98 0 1.09-.89 1.98-1.98 1.98" fill="#FF946D"/><path d="M52.97 42.92H24.339a1.986 1.986 0 01-1.98-1.98c0-1.088.89-1.98 1.98-1.98h28.63c1.09 0 1.98.892 1.98 1.98 0 1.09-.89 1.98-1.98 1.98z" stroke="#000" stroke-width=".939"/><path d="M46.552 28.998a1.985 1.985 0 00-1.979-1.979H24.34c-1.09 0-1.98.89-1.98 1.98 0 1.088.89 1.98 1.98 1.98h20.234a1.986 1.986 0 001.98-1.98" fill="#FF946D"/><path d="M46.552 28.998a1.985 1.985 0 00-1.979-1.979H24.34c-1.09 0-1.98.89-1.98 1.98 0 1.088.89 1.98 1.98 1.98h20.234a1.986 1.986 0 001.98-1.98z" stroke="#000" stroke-width=".939"/><path d="M42.123 50.985H23.808a1.982 1.982 0 00-1.448 1.898c0 1.09.89 1.98 1.98 1.98h18.317a1.98 1.98 0 001.447-1.898c0-1.089-.89-1.98-1.98-1.98" fill="#FF946D"/><path d="M42.123 50.985H23.808a1.982 1.982 0 00-1.448 1.898c0 1.09.89 1.98 1.98 1.98h18.317a1.98 1.98 0 001.447-1.898c0-1.089-.89-1.98-1.98-1.98z" stroke="#000" stroke-width=".939"/><path d="M22.625 28.794h23.903M22.625 40.661h32.198M22.625 52.776h21.502" stroke="#000" stroke-width=".737" stroke-linecap="round" stroke-linejoin="round" stroke-dasharray="0.014,4"/></g></svg>