<svg xmlns="http://www.w3.org/2000/svg" xmlns:xlink="http://www.w3.org/1999/xlink" width="84" height="84"><defs><ellipse id="a" cx="34.65" cy="19.25" rx="19.621" ry="19.25"/></defs><g fill="none" fill-rule="evenodd"><path fill="#FFF" fill-opacity=".01" d="M0 0h84v84H0z"/><g transform="translate(3.5 3.5)"><path fill="#223B91" d="M7 4.9h39.2v32.9a7 7 0 01-7 7H0V11.9a7 7 0 017-7z"/><path stroke="#000" stroke-linecap="square" stroke-width=".7" d="M59.15 0v9.1"/><path fill="#ED6536" d="M46.2 35.7h19.6v39.2H46.2z"/><ellipse cx="24.85" cy="54.25" fill="#3F99F7" rx="21.35" ry="20.65"/><path stroke="#000" stroke-linecap="square" stroke-width=".7" d="M68.95 6.714v8.272"/><path stroke="#000" stroke-width=".7" d="M59.15 14v-2.8"/><path stroke="#000" stroke-linecap="square" stroke-width=".7" d="M68.95 17.928v6.844"/><path fill="#000" fill-rule="nonzero" d="M56.754 67.555c.542.446 1.156.95 2.374.991 1.22.04 1.868-.422 2.441-.83.531-.378.99-.705 1.924-.674.934.031 1.368.388 1.871.801.542.446 1.156.95 2.375.991 1.218.04 1.868-.421 2.44-.83.532-.378.991-.705 1.925-.674.934.032 1.368.388 1.87.802.543.445 1.157.95 2.376.99.23.008.423-.17.431-.397a.413.413 0 00-.401-.426c-.934-.032-1.369-.389-1.872-.802-.541-.445-1.155-.95-2.374-.99-1.219-.041-1.868.42-2.441.829-.531.379-.99.706-1.924.674-.934-.031-1.368-.388-1.871-.801-.542-.445-1.156-.95-2.375-.991-1.219-.04-1.868.422-2.44.83-.532.378-.99.705-1.925.674-.933-.031-1.368-.388-1.87-.801-.542-.446-1.037.22-.534.634z"/><g transform="translate(3.5 19.6)"><path fill="#FFF" fill-rule="nonzero" stroke="#000" stroke-width="1.4" d="M68.176 16.052A42.726 42.726 0 0053.607 4.361C47.85 1.542 41.653.08 35.186.004a40.063 40.063 0 00-1.072 0C27.647.08 21.451 1.542 15.692 4.36A42.726 42.726 0 001.124 16.052a5.112 5.112 0 000 6.396 42.726 42.726 0 0014.568 11.691c5.76 2.819 11.955 4.28 18.422 4.357.178.005.894.005 1.072 0 6.467-.076 12.663-1.538 18.421-4.357a42.726 42.726 0 0014.57-11.691 5.112 5.112 0 000-6.396z"/><mask id="b" fill="#fff"><use xlink:href="#a"/></mask><use fill="#FCB430" stroke="#000" stroke-width="1.4" xlink:href="#a"/><g stroke="#000" stroke-dasharray="0,3.5" stroke-linecap="round" stroke-linejoin="round" stroke-width=".7" mask="url(#b)"><path d="M29.809 34.92L29.87.82M19.556 34.888l.234-29.693m4.598 29.435l.658-30.774"/></g><g stroke="#000" stroke-dasharray="0,3.5" stroke-linecap="round" stroke-linejoin="round" stroke-width=".7" mask="url(#b)"><path d="M44.003 34.92l.062-34.1M33.75 34.888l.234-29.693m4.598 29.435l.658-30.774"/></g><g stroke="#000" stroke-dasharray="0,3.5" stroke-linecap="round" stroke-linejoin="round" stroke-width=".7" mask="url(#b)"><path d="M59.031 34.92l.063-34.1M48.779 34.888l.234-29.693m4.598 29.435l.658-30.774"/></g><ellipse cx="34.65" cy="19.25" fill="#FCB430" mask="url(#b)" rx="7.932" ry="7.782"/><ellipse cx="35.067" cy="19.66" fill="#FFF" mask="url(#b)" rx="6.68" ry="6.553"/><ellipse cx="35.067" cy="19.66" stroke="#000" stroke-width="1.4" mask="url(#b)" rx="6.68" ry="6.553"/></g></g></g></svg>