<svg xmlns="http://www.w3.org/2000/svg" width="84" height="84"><g fill="none" fill-rule="evenodd"><path fill="#FFF" fill-opacity=".01" d="M0 0h84v84H0z"/><path d="M57.508 43.018h18.524m-13.624-9.8h16.907m-24.715 4.9h18.267" stroke="#000" stroke-dasharray="0.007699999958276746,5.99970006942749" stroke-linecap="round" stroke-linejoin="round" stroke-width="1.8"/><g transform="translate(28.7 23.1)"><circle cx="16.8" cy="14.7" r="14.7" fill="#FFA900"/><circle cx="14.7" cy="14.7" r="14.7" stroke="#000" stroke-width=".7"/><g stroke="#000" stroke-width=".7"><path d="M17.938 9.285a3.623 3.623 0 00-2.614-1.63c-1.972-.243-3.763 1.123-4 3.05-.236 1.927 1.17 3.685 3.143 3.927"/><path d="M11.619 20.58a3.835 3.835 0 103.718-5.841l-.883-.11"/></g><path stroke="#000" stroke-width=".7" d="M14.7 7.67V6.391m0 17.257V22.37"/></g><path stroke="#000" stroke-linecap="square" stroke-width=".7" d="M43.05 5.6v7.7m-9.1-2.45v7m17.5-7v7"/><path stroke="#000" stroke-width=".7" d="M43.05 18.2v-2.8"/><g transform="translate(10.5 56)"><path fill="#FFF" d="M10.5 0a1.4 1.4 0 011.4 1.4v5.766c.117-1.978.35-3.083.7-3.316 2.337-1.558 11.2 0 14 .35 1.881.235 4.358.192 3.85.7-.35.35 1.05 5.95 1.05 5.95l14-.7v-1.4c3.5-1.867 6.533-3.617 9.1-5.25 3.85-2.45 6.65 1.05 6.65 1.4 0 .35-.796.575-1.082.794C47.834 15.132 40.612 20.06 38.5 20.477a16.755 16.755 0 01-6.523 0c-4.443-.918-7.519-1.56-9.227-1.927a74.568 74.568 0 00-4.177-.796L11.99 18.83a4.68 4.68 0 011.013-1.025 2.86 2.86 0 00-1.104.744v1.75a1.4 1.4 0 01-1.4 1.4H2.8a1.4 1.4 0 01-1.4-1.4V1.4A1.4 1.4 0 012.8 0h7.7zm28.528 4.55c5.451 0 6.814 5.6 6.473 5.6-.227 0-4.883.117-13.97.35l-.68-5.95zm-8.699-.005l.121.005-.1-.003-.021-.002zM12.25 3.85c4.2-3.85 10.15-2.1 13.65-.7 2.121.848 3.567 1.311 4.339 1.388l.09.007zm0 0v14.7l-.35.35V4.55l.35-.7z"/><rect width="10.5" height="21.7" y="1.4" fill="#1497FF" rx="1.4"/><rect width="10.5" height="21.7" x="1.4" stroke="#000" stroke-width=".7" rx="1.4"/><path stroke="#000" stroke-width=".7" d="M11.99 18.831c1.494-2.044 4.031-2.459 7.612-1.246m0 0l12.375 2.892a16.73 16.73 0 006.523 0c2.112-.417 9.334-5.345 21.668-14.783.286-.22 1.082-.444 1.082-.794 0-.35-2.8-3.85-6.65-1.4-2.567 1.633-5.833 3.383-9.8 5.25"/><path stroke="#000" stroke-width=".7" d="M31.15 10.5c9.333-.233 14.117-.35 14.35-.35.35 0-1.05-5.6-6.65-5.6h-8.4m0 0c-.7 0-2.217-.467-4.55-1.4-3.5-1.4-9.45-3.15-13.65.7m0 0l-.35.7V18.9l.35-.35"/></g><path stroke="#979797" stroke-width=".7" d="M43.4 37.1c.7 0 .7 0 0 0"/><path d="M10.904 44.333l6.192-4.666m-.763 5.429l-4.666-6.192" stroke="#000" stroke-linecap="square" stroke-width=".7"/><g transform="translate(7.7 13.3)"><circle cx="4.2" cy="5.6" r="4.2" fill="#D73689"/><circle cx="4.2" cy="4.2" r="4.2" stroke="#000" stroke-width=".7"/></g><g transform="rotate(-105 42.423 -17.756)"><circle cx="4.2" cy="5.6" r="4.2" fill="#FF8C62"/><circle cx="4.2" cy="4.2" r="4.2" stroke="#000" stroke-width=".7"/></g></g></svg>