<svg width="235.35" height="193.7" xmlns="http://www.w3.org/2000/svg"><g fill="none" fill-rule="evenodd"><path fill="#FFE2A5" fill-rule="nonzero" d="M0 0h235.35v193.7H0z"/><path d="M102.5 126.5l-29.5-17c-19.57.05-29.961 13.95-30 39.131V197h79.773S102.5 126.317 102.5 126.5z" fill="#FFF" fill-rule="nonzero"/><path d="M184.31 126.33c0-23.79-15.36-43.19-31.79-43.12l-19.85.11c-16.43.06-35.29 19.58-35.29 43.37" fill="#FFF" fill-rule="nonzero"/><path d="M139.92 83h-7.25c-8.13 0-17.11 4.85-24 12.89a47.24 47.24 0 00-11.56 30.78h.6c0-19.45 15.61-43 35-43.07h7.25l-.04-.6z" fill="#000" fill-rule="nonzero"/><path d="M158.17 83.23V86s-1.37 7.18-9.07 7a9.38 9.38 0 01-9.18-7v-2.7h-2.25c-10.9 0-22.88 8.66-29.7 21.41a46.5 46.5 0 00-5.59 22l86.94-.36c0-23.49-14.97-42.69-31.15-43.12z"/><path d="M192.13 185.11l-2.81-58.78c0-23.79-15.37-43.19-31.8-43.13l-19.85.12c-16.42.06-35.29 19.58-35.29 43.37l-2.51 58.42h92.26z" fill="#0064EE" fill-rule="nonzero"/><path fill="#FFF" fill-rule="nonzero" d="M124.79 96.21h31.69v1h-31.69z"/><path d="M107.48 105.68h77.73c-.55-1.31-1.16-2.58-1.8-3.8h-73.78c-.77 1.22-1.49 2.49-2.15 3.8zM104.61 112.67h83c-.34-1.29-.72-2.56-1.14-3.8H106c-.51 1.24-1 2.51-1.39 3.8z" fill="#000" fill-rule="nonzero"/><path d="M150.83 35.93c18.11-4.5 22.85 6.6 22.85 6.6V59s2.63 3.48 2.74 4.64c.11 1.16-.74 2.43-3.69 2.74 0 0 1.18 5.52-1.9 9-1 1.16-7.44 1.36-12.66 1.33V86s-1.37 7.18-9.07 7a9.38 9.38 0 01-9.18-7V59S137 39.37 150.83 35.93z" fill="#FFE5C9" fill-rule="nonzero"/><path d="M166.82 59.42a1.2 1.2 0 10-1.2-1.2 1.19 1.19 0 001.2 1.2z" fill="#000" fill-rule="nonzero"/><path d="M125.72 47.9a9.44 9.44 0 014.1-7.78 10.68 10.68 0 01-.13-1.6c0-6.075 4.925-11 11-11a11.09 11.09 0 012.53.3 7.22 7.22 0 016.94-4.69 7.35 7.35 0 016.4 3.54 7.58 7.58 0 015.14-2c4 0 7.27 3 7.27 6.69a5.84 5.84 0 01-.25 1.68A6.45 6.45 0 01170 33a6.27 6.27 0 016.11 6.43 6.67 6.67 0 01-.61 2.8 6.52 6.52 0 012.78 5.38 6.42 6.42 0 01-4.25 6.13c-.59.2-.4-8.47-.4-8.47-.67.27-1.6 1-4.86.72a6.76 6.76 0 01-4.92-3.11c-3.48 4.75-7.6 2.32-7.6 2.32s.95 8.12 1.48 11.82c.53 3.7.74 6.32-2.64 6.32s-3.27-3.79-3.27-3.79V54c0-2-.21-3.06-1.9-3.06s-1.79 2.22-1.58 4.22c.21 2 .11 4.75-.74 6.12s-7.8 9.28-7.8 9.28l-.39-4.64a6.85 6.85 0 01-8.77-9.74 9.45 9.45 0 01-4.92-8.28z" fill="#FCB430" fill-rule="nonzero"/><path d="M176.72 63.59c-.11-1.14-2.28-4.09-2.74-4.71V45.27h-.6v13.81l.06.08c.72 1 2.6 3.61 2.68 4.49.12 1.29-1.13 2.17-3.42 2.41h-.34l.07.33a13.41 13.41 0 010 5c-2.35-.25-2.8-2.78-2.81-2.89l-.6.1s.53 3 3.27 3.38a7.69 7.69 0 01-1.65 3.14c-.35.39-2.26 1.3-12.43 1.23V77h1c10.58 0 11.54-1.08 11.86-1.44 2.76-3.08 2.24-7.65 2-8.91 3.49-.5 3.72-2.29 3.65-3.06z" fill="#000" fill-rule="nonzero"/><path d="M166.82 53.28a4.63 4.63 0 00-4.61 4.43h-4.36c0 .2.05.4.08.6h4.31a4.61 4.61 0 104.58-5v-.03zm0 8.65a4 4 0 110-8 4 4 0 010 8zM171.09 89.08a.38.38 0 01-.38-.37c0-.2.16-.365.36-.37a.37.37 0 010 .74h.02zm-4 0a.38.38 0 01-.37-.37c0-.2.16-.365.36-.37a.37.37 0 010 .74h.01zM173.89 92.65a.38.38 0 01-.37-.37.36.36 0 01.36-.37.36.36 0 01.37.37c0 .2-.16.365-.36.37zm-4 0a.38.38 0 01-.38-.37.36.36 0 01.37-.37.37.37 0 01.37.37.38.38 0 01-.37.37h.01zM179.12 96.21a.37.37 0 01-.38-.36.36.36 0 01.36-.37.37.37 0 010 .73h.02zm-4 0a.37.37 0 01-.37-.36.35.35 0 01.36-.37.37.37 0 110 .73h.01zm-4 0a.37.37 0 01-.38-.36.36.36 0 01.36-.37.37.37 0 110 .73h.02zm-4 0a.37.37 0 01-.37-.36.36.36 0 01.36-.37.37.37 0 110 .73h.01zM185.94 114.05a.38.38 0 01-.38-.37c0-.2.16-.365.36-.37a.37.37 0 010 .74h.02zm-4 0a.38.38 0 01-.37-.37.36.36 0 01.36-.37.37.37 0 010 .74h.01zm-4 0a.38.38 0 01-.38-.37c0-.2.16-.365.36-.37a.37.37 0 010 .74h.02zm-4 0a.38.38 0 01-.37-.37c0-.2.16-.365.36-.37a.37.37 0 010 .74h.01zm-4 0a.38.38 0 01-.38-.37.37.37 0 11.37.37h.01zM187.14 117.62a.38.38 0 01-.37-.37.36.36 0 01.36-.37.36.36 0 01.37.37c0 .2-.16.365-.36.37zm-4 0a.38.38 0 01-.38-.37.36.36 0 01.37-.37.37.37 0 01.37.37.38.38 0 01-.37.37h.01zm-4 0a.38.38 0 01-.38-.37.36.36 0 01.36-.37.36.36 0 01.36.37c0 .2-.16.365-.36.37h.02zm-4 0a.38.38 0 01-.37-.37.35.35 0 01.36-.37.36.36 0 01.37.37.37.37 0 01-.4.37h.04zm-4 0a.38.38 0 01-.38-.37.36.36 0 01.36-.37.37.37 0 01.37.37.38.38 0 01-.4.37h.05zm-4 0a.38.38 0 01-.37-.37.36.36 0 01.36-.37.36.36 0 01.37.37.37.37 0 01-.43.37h.07zM185.94 121.18a.37.37 0 01-.38-.36.36.36 0 01.36-.37.37.37 0 010 .73h.02zm-4 0a.37.37 0 01-.37-.36.35.35 0 01.36-.37.37.37 0 110 .73h.01zm-4 0a.37.37 0 01-.38-.36.36.36 0 01.36-.37.37.37 0 110 .73h.02zm-4 0a.37.37 0 01-.37-.36.36.36 0 01.36-.37.37.37 0 110 .73h.01zm-4 0a.38.38 0 01-.38-.36.36.36 0 01.37-.37.37.37 0 110 .73h.01zM187.14 124.75a.37.37 0 010-.74.37.37 0 01.37.37.36.36 0 01-.37.37zm-4 0a.38.38 0 01-.38-.37.37.37 0 01.37-.37.38.38 0 01.37.37.37.37 0 01-.37.37h.01zm-4 0a.37.37 0 11-.02-.74c.2.005.36.17.36.37a.36.36 0 01-.36.37h.02zm-4 0a.37.37 0 01-.37-.37.36.36 0 01.36-.37.37.37 0 01.37.37.36.36 0 01-.4.37h.04zm-4 0a.37.37 0 11-.02-.74.38.38 0 01.37.37.37.37 0 01-.4.37h.05zm-4 0a.37.37 0 010-.74.37.37 0 01.37.37.36.36 0 01-.44.37h.07zM183.13 103.35a.38.38 0 01-.38-.37.37.37 0 11.37.37h.01zm-4 0a.38.38 0 01-.38-.37c0-.2.16-.365.36-.37a.37.37 0 010 .74h.02zm-4 0a.38.38 0 01-.37-.37.36.36 0 01.36-.37.37.37 0 010 .74h.01zm-4 0a.38.38 0 01-.38-.37c0-.2.16-.365.36-.37a.37.37 0 010 .74h.02zm-4 0a.38.38 0 01-.37-.37c0-.2.16-.365.36-.37a.37.37 0 010 .74h.01zM181.92 106.92a.38.38 0 01-.37-.37.35.35 0 01.36-.37.37.37 0 01.37.37.38.38 0 01-.36.37zm-4 0a.38.38 0 01-.38-.37.36.36 0 01.36-.37.37.37 0 01.37.37.38.38 0 01-.36.37h.01zm-4 0a.38.38 0 01-.37-.37.36.36 0 01.36-.37.36.36 0 01.37.37.37.37 0 01-.39.37h.03zm-4 0a.38.38 0 01-.38-.37.36.36 0 01.37-.37.37.37 0 01.37.37.38.38 0 01-.4.37h.04zM183.13 110.48a.38.38 0 01-.38-.37.36.36 0 01.37-.36.37.37 0 110 .73h.01zm-4 0a.37.37 0 01-.38-.37.36.36 0 01.36-.36.37.37 0 010 .73h.02zm-4 0a.37.37 0 01-.37-.37.35.35 0 01.36-.36.37.37 0 110 .73h.01zm-4 0a.37.37 0 01-.38-.37.36.36 0 01.36-.36.37.37 0 110 .73h.02zm-4 0a.37.37 0 01-.37-.37.36.36 0 01.36-.36.37.37 0 110 .73h.01zM185.94 128.32a.38.38 0 01-.38-.37c0-.2.16-.365.36-.37a.37.37 0 010 .74h.02zm-4 0a.38.38 0 01-.37-.37.36.36 0 01.36-.37.37.37 0 010 .74h.01zm-4 0a.38.38 0 01-.38-.37c0-.2.16-.365.36-.37a.37.37 0 010 .74h.02zm-4 0a.38.38 0 01-.37-.37c0-.2.16-.365.36-.37a.37.37 0 010 .74h.01zm-4 0a.38.38 0 01-.38-.37.37.37 0 11.37.37h.01zM187.14 131.88a.37.37 0 01-.37-.36.36.36 0 01.36-.37.37.37 0 110 .73h.01zm-4 0a.38.38 0 01-.38-.36.36.36 0 01.37-.37.37.37 0 110 .73h.01zm-4 0a.37.37 0 01-.38-.36.36.36 0 01.36-.37.37.37 0 010 .73h.02zm-4 0a.37.37 0 01-.37-.36.35.35 0 01.36-.37.37.37 0 110 .73h.01zm-4 0a.37.37 0 01-.38-.36.36.36 0 01.36-.37.37.37 0 110 .73h.02zm-4 0a.37.37 0 01-.37-.36.36.36 0 01.36-.37.37.37 0 110 .73h.01zM185.94 135.45a.37.37 0 01-.38-.37.36.36 0 01.36-.36.37.37 0 010 .73h.02zm-4 0a.37.37 0 01-.37-.37.35.35 0 01.36-.36.37.37 0 110 .73h.01zm-4 0a.37.37 0 01-.38-.37.36.36 0 01.36-.36.37.37 0 110 .73h.02zm-4 0a.37.37 0 01-.37-.37.36.36 0 01.36-.36.37.37 0 110 .73h.01zm-4 0a.38.38 0 01-.38-.37.36.36 0 01.37-.36.37.37 0 110 .73h.01zM187.14 146.28a.38.38 0 01-.37-.37.36.36 0 01.36-.37.36.36 0 01.37.37c0 .2-.16.365-.36.37zm-4 0a.38.38 0 01-.38-.37.36.36 0 01.37-.37.37.37 0 01.37.37.38.38 0 01-.37.37h.01zm-4 0a.38.38 0 01-.38-.37.36.36 0 01.36-.37.36.36 0 01.36.37c0 .2-.16.365-.36.37h.02zm-4 0a.38.38 0 01-.37-.37.35.35 0 01.36-.37.36.36 0 01.37.37.37.37 0 01-.4.37h.04zm-4 0a.38.38 0 01-.38-.37.36.36 0 01.36-.37.37.37 0 01.37.37.38.38 0 01-.4.37h.05zm-4 0a.38.38 0 01-.37-.37.36.36 0 01.36-.37.36.36 0 01.37.37.37.37 0 01-.43.37h.07zM190 149.84a.38.38 0 01-.38-.36.36.36 0 01.37-.37.37.37 0 110 .73h.01zm-4 0a.37.37 0 01-.38-.36.36.36 0 01.36-.37.37.37 0 010 .73h.02zm-4 0a.37.37 0 01-.37-.36.35.35 0 01.36-.37.37.37 0 110 .73h.01zm-4 0a.37.37 0 01-.38-.36.36.36 0 01.36-.37.37.37 0 110 .73h.02zm-4 0a.37.37 0 01-.37-.36.36.36 0 01.36-.37.37.37 0 110 .73h.01zm-4 0a.38.38 0 01-.38-.36.36.36 0 01.37-.37.37.37 0 110 .73h.01zM187.14 153.41a.37.37 0 010-.74.37.37 0 01.37.37.36.36 0 01-.37.37zm-4 0a.38.38 0 01-.38-.37.37.37 0 01.37-.37.38.38 0 01.37.37.37.37 0 01-.37.37h.01zm-4 0a.37.37 0 11-.02-.74c.2.005.36.17.36.37a.36.36 0 01-.36.37h.02zm-4 0a.37.37 0 01-.37-.37.36.36 0 01.36-.37.37.37 0 01.37.37.36.36 0 01-.4.37h.04zm-4 0a.37.37 0 11-.02-.74.38.38 0 01.37.37.37.37 0 01-.4.37h.05zm-4 0a.37.37 0 010-.74.37.37 0 01.37.37.36.36 0 01-.44.37h.07zM187.14 139.14a.37.37 0 01-.37-.37.36.36 0 01.36-.36.37.37 0 110 .73h.01zm-4 0a.38.38 0 01-.38-.37.36.36 0 01.37-.36.37.37 0 110 .73h.01zm-4 0a.37.37 0 01-.38-.37.36.36 0 01.36-.36.37.37 0 010 .73h.02zm-4 0a.37.37 0 01-.37-.37.35.35 0 01.36-.36.37.37 0 110 .73h.01zm-4 0a.37.37 0 01-.38-.37.36.36 0 01.36-.36.37.37 0 110 .73h.02zm-4 0a.37.37 0 01-.37-.37.36.36 0 01.36-.36.37.37 0 110 .73h.01zM190 171.25a.38.38 0 01-.38-.37.36.36 0 01.37-.37.37.37 0 01.37.37.38.38 0 01-.36.37zm-4 0a.38.38 0 01-.38-.37.36.36 0 01.36-.37.36.36 0 01.36.37.37.37 0 01-.4.37h.06zm-4 0a.38.38 0 01-.37-.37.35.35 0 01.36-.37.37.37 0 01.235.656.38.38 0 01-.305.084h.08zm-4 0a.38.38 0 01-.38-.37.36.36 0 01.36-.37.37.37 0 01.235.656.38.38 0 01-.305.084h.09zm-4 0a.38.38 0 01-.37-.37.36.36 0 01.36-.37.36.36 0 01.37.37.37.37 0 01-.47.37h.11zm-4 0a.38.38 0 01-.38-.37.36.36 0 01.37-.37.37.37 0 01.37.37.38.38 0 01-.48.37h.12zM191.16 174.81a.37.37 0 01-.38-.36.36.36 0 01.36-.37.37.37 0 110 .73h.02zm-4 0a.37.37 0 01-.37-.36.36.36 0 01.36-.37.37.37 0 110 .73h.01zm-4 0a.38.38 0 01-.38-.36.36.36 0 01.37-.37.37.37 0 110 .73h.01zm-4 0a.37.37 0 01-.38-.36.36.36 0 01.36-.37.37.37 0 010 .73h.02zm-4 0a.37.37 0 01-.37-.36.35.35 0 01.36-.37.37.37 0 110 .73h.01zm-4 0a.37.37 0 01-.38-.36.36.36 0 01.36-.37.37.37 0 110 .73h.02zm-4 0a.37.37 0 01-.37-.36.36.36 0 01.36-.37.37.37 0 110 .73h.01zM190 178.38a.38.38 0 01-.38-.37.37.37 0 01.37-.37.38.38 0 01.37.37c0 .2-.16.365-.36.37zm-4 0a.37.37 0 11-.02-.74c.2.005.36.17.36.37a.36.36 0 01-.4.37h.06zm-4 0a.37.37 0 01-.37-.37.36.36 0 01.36-.37.38.38 0 01.37.37.37.37 0 01-.44.37h.08zm-4 0a.37.37 0 11-.02-.74.38.38 0 01.37.37.37.37 0 01-.44.37h.09zm-4 0a.37.37 0 010-.74.37.37 0 01.37.37.36.36 0 01-.48.37h.11zm-4 0a.38.38 0 01-.38-.37.37.37 0 01.37-.37.38.38 0 01.37.37.37.37 0 01-.48.37h.12zM191.16 182a.38.38 0 01-.38-.37c0-.2.16-.365.36-.37a.37.37 0 010 .74h.02zm-4 0a.38.38 0 01-.37-.37c0-.2.16-.365.36-.37a.37.37 0 010 .74h.01zm-4 0a.38.38 0 01-.38-.37.37.37 0 11.37.37h.01zm-4 0a.38.38 0 01-.38-.37c0-.2.16-.365.36-.37a.37.37 0 010 .74h.02zm-4 0a.38.38 0 01-.37-.37.36.36 0 01.36-.37.37.37 0 010 .74h.01zm-4 0a.38.38 0 01-.38-.37c0-.2.16-.365.36-.37a.37.37 0 010 .74h.02zm-4 0a.38.38 0 01-.37-.37c0-.2.16-.365.36-.37a.37.37 0 010 .74h.01zM190 157a.38.38 0 01-.38-.37.37.37 0 01.37-.37.37.37 0 010 .74h.01zm-4 0a.38.38 0 01-.38-.37c0-.2.16-.365.36-.37a.37.37 0 010 .74h.02zm-4 0a.38.38 0 01-.37-.37.36.36 0 01.36-.37.37.37 0 010 .74h.01zm-4 0a.38.38 0 01-.38-.37c0-.2.16-.365.36-.37a.37.37 0 010 .74h.02zm-4 0a.38.38 0 01-.37-.37c0-.2.16-.365.36-.37a.37.37 0 010 .74h.01zm-4 0a.38.38 0 01-.38-.37.37.37 0 01.37-.37.37.37 0 010 .74h.01zM187.14 160.55a.38.38 0 01-.37-.37.36.36 0 01.36-.37.36.36 0 01.37.37c0 .2-.16.365-.36.37zm-4 0a.38.38 0 01-.38-.37.36.36 0 01.37-.37.37.37 0 01.37.37.38.38 0 01-.37.37h.01zm-4 0a.38.38 0 01-.38-.37.36.36 0 01.36-.37.36.36 0 01.36.37c0 .2-.16.365-.36.37h.02zm-4 0a.38.38 0 01-.37-.37.35.35 0 01.36-.37.36.36 0 01.37.37.37.37 0 01-.4.37h.04zm-4 0a.38.38 0 01-.38-.37.36.36 0 01.36-.37.37.37 0 01.37.37.38.38 0 01-.4.37h.05zm-4 0a.38.38 0 01-.37-.37.36.36 0 01.36-.37.36.36 0 01.37.37.37.37 0 01-.43.37h.07zM190 164.11a.38.38 0 01-.38-.37.36.36 0 01.37-.36.37.37 0 110 .73h.01zm-4 0a.37.37 0 01-.38-.37.36.36 0 01.36-.36.37.37 0 010 .73h.02zm-4 0a.37.37 0 01-.37-.37.35.35 0 01.36-.36.37.37 0 110 .73h.01zm-4 0a.37.37 0 01-.38-.37.36.36 0 01.36-.36.37.37 0 110 .73h.02zm-4 0a.37.37 0 01-.37-.37.36.36 0 01.36-.36.37.37 0 110 .73h.01zm-4 0a.38.38 0 01-.38-.37.36.36 0 01.37-.36.37.37 0 110 .73h.01zM187.14 167.68a.38.38 0 01-.37-.37c0-.2.16-.365.36-.37a.37.37 0 010 .74h.01zm-4 0a.38.38 0 01-.38-.37.37.37 0 11.37.37h.01zm-4 0a.38.38 0 01-.38-.37c0-.2.16-.365.36-.37a.37.37 0 010 .74h.02zm-4 0a.38.38 0 01-.37-.37.36.36 0 01.36-.37.37.37 0 010 .74h.01zm-4 0a.38.38 0 01-.38-.37c0-.2.16-.365.36-.37a.37.37 0 010 .74h.02zm-4 0a.38.38 0 01-.37-.37c0-.2.16-.365.36-.37a.37.37 0 010 .74h.01zM173.88 99a.37.37 0 000 .74.36.36 0 00.37-.37.37.37 0 00-.37-.37zM169.88 99.78a.37.37 0 00.37-.37.38.38 0 00-.37-.37.37.37 0 00-.37.37.38.38 0 00.37.37zM181.92 99.78a.37.37 0 00.25-.1c-.13-.2-.25-.41-.37-.61a.35.35 0 00-.25.34c0 .204.166.37.37.37zM177.91 99.78a.37.37 0 00.37-.37.38.38 0 00-.37-.37.37.37 0 000 .74zM185.92 142a.37.37 0 00.02.74.36.36 0 00.36-.37.37.37 0 00-.36-.37h-.02zM169.88 142.71a.37.37 0 00.37-.37.38.38 0 00-.37-.37.37.37 0 00-.37.37.38.38 0 00.37.37zM173.88 142a.37.37 0 000 .74.36.36 0 00.37-.37.37.37 0 00-.37-.37zM190.07 142a.27.27 0 00-.12 0 .37.37 0 00-.37.37.38.38 0 00.38.37.26.26 0 00.15 0l-.04-.74zM177.91 142.71a.37.37 0 00.37-.37.38.38 0 00-.37-.37.37.37 0 000 .74zM181.91 142a.36.36 0 00-.36.37.37.37 0 00.74 0 .38.38 0 00-.37-.37h-.01zM111.42 78.47c-.55-7.16-4.28-11.14-8.53-13.35 2.73-4.65 3.71-10.53-4.26-17.24-5.86-4.88-16.41-4.72-19.24 1.32 0 0-6.79-11.13-23.77-2.45-8.72 4.46-10.16 12.12-9.8 18.77-5.24 4.16-11.25 9.66-10.17 20.39 1 9.6 2.94 15 13.92 20 10.52 4.77 23.37-2.9 23.37-2.9l5.3 9.28s5.29 4.49 13.74-.92c5-3.17 3.71-9.43 3.28-12.85.91-.11 17.47-2.79 16.16-20.05z" fill="#000" fill-rule="nonzero"/><path d="M104.76 78.56a11.63 11.63 0 00-6.43-10.06l.28-.53a12.17 12.17 0 016.74 10.55l-.59.04z" fill="#FFF" fill-rule="nonzero"/><path d="M59.38 112.26c0 2.69-.08 8-.07 8.8 0-.8.06-6.13.08-8.8h-.01zM85.1 193.85v-72.7c0-.44-.08-10.43-.08-10.43h.66a27 27 0 00-5.68-2.18s-20.55 15.92-20.65 12.61v72.7H85.1z" fill="#FF8C40" fill-rule="nonzero"/><path d="M85.07 121.17v72.24h23.22l.76-43.75c.45-30.49-13-38.92-24.06-38.92.01 0 .1 9.99.08 10.43z" fill="#FFF" fill-rule="nonzero"/><path d="M85.4 141.07h-.59v-19.92c0-.35-.06-7-.09-10.43h.6c0 .4.1 10 .08 10.44v19.91z" fill="#000" fill-rule="nonzero"/><path d="M93.86 127.85a2.15 2.15 0 11-4.3 0 2.15 2.15 0 014.3 0z" fill="#2398F3" fill-rule="nonzero"/><path d="M103.12 138.71a31.24 31.24 0 00-8.3-21.12l-.44.41a30.69 30.69 0 018.14 20.71v43h.6v-43zM93 125.4a2.45 2.45 0 102.45 2.45A2.46 2.46 0 0093 125.4zm0 4.3a1.85 1.85 0 01-1.85-1.85A1.84 1.84 0 0193 126a1.85 1.85 0 010 3.7zM89.14 115.14c-5.511-.027-9.973-4.489-10-10v-7.5c0-5.523 4.477-10 10-10 5.51 0 10-5.51 10 0v17.49a10 10 0 01-10 10.01z" fill="#000" fill-rule="nonzero"/><path d="M74.68 84.41c-17.69-.81-19-15.35-19-15.35-6.6 7.55-2.78 20.44-2.78 20.44s-2.58 0-2.65 1.85c-.07 1.85 2.17 2 2.17 2a14.61 14.61 0 000 5c.39 3.59 5.17 3.8 5.17 3.8l3.86.31s3.24-.25 2.61 6.45c0 0-4.49 1.59-4.65 1.82 0-.06-.1 10-.08 10.43.1 3.31 1.87 5.5 6.26 6.8 5.11 1.51 14.29-1 14.31-8l.18-26.09L82 91.66a7.85 7.85 0 01-7.32-7.25z" fill="#CF6740" fill-rule="nonzero"/><path d="M57.59 88.94a.75.75 0 01-.17.56.76.76 0 01-.52.27.73.73 0 01-.55-.17.75.75 0 01-.28-.52l-.59.06a1.34 1.34 0 001.35 1.23H57a1.37 1.37 0 001.23-1.48l-.64.05zM52.17 96.07l-.21.56c.444.15.91.225 1.38.22a3.27 3.27 0 002.77-1.37l-.49-.35a3 3 0 01-3.45.94zM59.61 187.61H59v-66.15c0-.39.06-7.93.08-9.95A31 31 0 0041.89 139v18.7h-.6V139a31.63 31.63 0 0118-28.26l.44-.2v.46c0 3.45-.1 10.07-.08 10.42l-.04 66.19z" fill="#000" fill-rule="nonzero"/><path d="M189.18 193.85c6.39-9.87 5.26-35-8.27-44.34-15.65-10.76-13.3-6.46-14.83-17.07-1.53-10.61-2.66-33-25.15-33.25s-26.54 15.92-27.24 26.4c-.7 10.48-1 23.33-1 23.33s-25.95-3.41-28.64 24c-.85 8.74-1.18 14.36-.34 20.9l105.47.03z" fill="#D53F32" fill-rule="nonzero"/><path d="M126.76 142.33v16.8h17.42s-2.14-7.42.9-8.4h5.09c2.86 0 6.61-.9 6.16-5.72-.45-4.82 0-3.84 0-3.84s2.86.09 3.13-2-2.59-4.73-2.59-4.73 2.86-15.28-5.54-21.26c0 0 6.07 6.86-4.16 13 0 0-6.62-1.18-6.65 6.68 0 3.18-.45 4.83-2 4.76-1.25-.06-1.87-1-1.87-3 0-5.23-3.28-8.23-6.11-6.34-2.83 1.89-2.36 4.3.59 8l-4.37 6.05z" fill="#EDA180" fill-rule="nonzero"/><circle fill="#FFF" fill-rule="nonzero" transform="rotate(-1.28 131.793 136.792)" cx="131.793" cy="136.792" r="2.24"/><path d="M168 193.85c-1.37-8.68-3.93-19.76-8.49-24.76-9.88-10.86-16.45-6.63-18.44-14.8h-17.82c-5 6.87-19.35 1.12-23.52 23.75-1.39 7.56-1 12.53.12 15.83l68.15-.02z" fill="#FFF" fill-rule="nonzero"/><path d="M173.54 193.85c-1-8.81-3.57-21.79-10.11-27-11.48-9.14-16.88-4.39-18.88-12.56h-17.82c-5 6.87-19.35 1.12-23.51 23.75-1.4 7.56-1 12.53.11 15.83l70.21-.02z" fill="#FCB430" fill-rule="nonzero"/><circle fill="#FFF" fill-rule="nonzero" transform="rotate(-30.13 128.556 168.352)" cx="128.556" cy="168.352" r="1.8"/><circle fill="#FFF" fill-rule="nonzero" transform="rotate(-30.13 128.563 161.99)" cx="128.563" cy="161.991" r="1.8"/><path d="M153 132.93a.72.72 0 01.56-.17.7.7 0 01.51.27.74.74 0 01.18.55l.59.06a1.34 1.34 0 00-1.23-1.48 1.37 1.37 0 00-1.48 1.23l.6.05a.78.78 0 01.27-.51z" fill="#000" fill-rule="nonzero"/><path d="M157.19 134.36c.3-1.74 2.41-15.63-5.68-21.4l-.35.49c8.14 5.81 5.44 20.81 5.42 21v.17l.12.11s2.75 2.59 2.5 4.48c-.2 1.52-2.15 1.68-2.68 1.7a1.21 1.21 0 00-.33 0c-.29.08-.49.06-.11 4.17a7.57 7.57 0 010 1 3.46 3.46 0 01-3.48-1.14l-.48.35a3.66 3.66 0 003.1 1.47 5.7 5.7 0 00.8-.06 4.06 4.06 0 01-1 2.21c-1.21 1.33-3.32 1.61-4.87 1.61h-5.09v.6h5.09c2.4 0 4.24-.63 5.31-1.81a5.29 5.29 0 001.15-4.24 24.19 24.19 0 01-.18-3.51c1.11 0 3.08-.46 3.31-2.23.26-2.04-1.99-4.42-2.55-4.97zM129.72 166.26a2.1 2.1 0 100 4.2 2.1 2.1 0 000-4.2zm0 3.59a1.5 1.5 0 110-3 1.5 1.5 0 010 3zM129.72 159.89a2.1 2.1 0 100 4.2 2.1 2.1 0 000-4.2zm0 3.6a1.5 1.5 0 110-3 1.5 1.5 0 010 3zM123 154.1c-1.59 2.19-4.18 3.05-7.18 4.05-6 2-13.56 4.51-16.38 19.81l.59.11c2.75-14.95 10.09-17.39 16-19.35 2.92-1 5.67-1.88 7.39-4.15h10.4V154h-10.74l-.08.1zM148.93 163.92c-3.2-1.35-5.32-2.24-6.3-6.27l-.58.14c1 4.32 3.4 5.31 6.65 6.68a29.72 29.72 0 0111.86 8.25l.45-.41a30.71 30.71 0 00-12.08-8.39zM109.13 151.75a.38.38 0 01-.38-.37.36.36 0 01.37-.36.37.37 0 110 .73h.01zm-4 0a.37.37 0 01-.38-.37.36.36 0 01.36-.36.37.37 0 010 .73h.02zm-4 0a.37.37 0 01-.37-.37.35.35 0 01.36-.36.37.37 0 110 .73h.01zM99.89 169.59a.38.38 0 01-.37-.37c0-.2.16-.365.36-.37a.37.37 0 010 .74h.01zm-4 0a.38.38 0 01-.38-.37.37.37 0 11.37.37h.01zm-4 0a.38.38 0 01-.38-.37c0-.2.16-.365.36-.37a.37.37 0 010 .74h.02zm-4 0a.38.38 0 01-.37-.37.36.36 0 01.36-.37.37.37 0 010 .74h.01zM97.09 173.16a.38.38 0 01-.38-.37.36.36 0 01.36-.37.37.37 0 01.37.37.38.38 0 01-.35.37zm-4 0a.38.38 0 01-.37-.37.36.36 0 01.36-.37.36.36 0 01.37.37.37.37 0 01-.38.37h.02zm-4 0a.38.38 0 01-.38-.37.36.36 0 01.37-.37.37.37 0 01.37.37.38.38 0 01-.39.37h.03zm-4 0a.38.38 0 01-.38-.37.36.36 0 01.36-.37.36.36 0 01.36.37.37.37 0 01-.38.37h.04zM97.09 180.29a.38.38 0 01-.38-.37c0-.2.16-.365.36-.37a.37.37 0 010 .74h.02zm-4 0a.38.38 0 01-.37-.37c0-.2.16-.365.36-.37a.37.37 0 010 .74h.01zm-4 0a.38.38 0 01-.38-.37.37.37 0 11.37.37h.01zm-4 0a.38.38 0 01-.38-.37c0-.2.16-.365.36-.37a.37.37 0 010 .74h.02zM107.92 155.32a.38.38 0 01-.37-.37.36.36 0 01.36-.37.37.37 0 010 .74h.01zm-4 0a.38.38 0 01-.38-.37c0-.2.16-.365.36-.37a.37.37 0 010 .74h.02zm-4 0a.38.38 0 01-.37-.37c0-.2.16-.365.36-.37a.37.37 0 010 .74h.01zm-4 0a.38.38 0 01-.38-.37.37.37 0 11.37.37h.01zM103.91 162.45a.37.37 0 01-.38-.36.36.36 0 01.36-.37.37.37 0 110 .73h.02zm-4 0a.37.37 0 01-.37-.36.36.36 0 01.36-.37.37.37 0 110 .73h.01zm-4 0a.38.38 0 01-.38-.36.36.36 0 01.37-.37.37.37 0 110 .73h.01zm-4 0a.37.37 0 01-.38-.36.36.36 0 01.36-.37.37.37 0 010 .73h.02zm-4 0a.37.37 0 01-.37-.36.35.35 0 01.36-.37.37.37 0 110 .73h.01zM101.1 166a.37.37 0 01-.37-.37.36.36 0 01.36-.37.37.37 0 01.37.37.36.36 0 01-.36.37zm-4 0a.37.37 0 11-.02-.74.38.38 0 01.37.37c0 .2-.16.365-.36.37h.01zm-4 0a.37.37 0 010-.74.37.37 0 01.37.37.36.36 0 01-.4.37h.03zm-4 0a.38.38 0 01-.38-.37.37.37 0 01.37-.37.38.38 0 01.37.37.37.37 0 01-.4.37h.04zM97.09 187.42a.37.37 0 01-.38-.37.36.36 0 01.36-.36.37.37 0 110 .73h.02zm-4 0a.37.37 0 01-.37-.37.36.36 0 01.36-.36.37.37 0 110 .73h.01zm-4 0a.38.38 0 01-.38-.37.36.36 0 01.37-.36.37.37 0 110 .73h.01zm-4 0a.37.37 0 01-.38-.37.36.36 0 01.36-.36.37.37 0 010 .73h.02zM95.88 191a.38.38 0 01-.38-.37.37.37 0 01.37-.37.38.38 0 01.37.37c0 .2-.16.365-.36.37zm-4 0a.37.37 0 11-.02-.74c.2.005.36.17.36.37a.36.36 0 01-.35.37h.01zm-4 0a.37.37 0 01-.37-.37.36.36 0 01.36-.37.37.37 0 01.37.37.36.36 0 01-.39.37h.03zM105.1 158.15a.36.36 0 00-.36.37.38.38 0 00.38.37.37.37 0 00.36-.37.36.36 0 00-.36-.37h-.02zM89.06 158.89a.37.37 0 00.19-.68c-.14.19-.29.38-.43.59a.42.42 0 00.24.09zM109.12 158.15a.36.36 0 00-.37.37.38.38 0 00.38.37.38.38 0 00.37-.37.37.37 0 00-.37-.37h-.01zM101.09 158.15a.35.35 0 00-.36.37.38.38 0 00.37.37.37.37 0 00.37-.37.36.36 0 00-.37-.37h-.01zM93.07 158.89a.37.37 0 00.37-.37.36.36 0 00-.37-.37.36.36 0 00-.36.37.38.38 0 00.36.37zM97.07 158.15a.36.36 0 00-.36.37.38.38 0 00.75 0 .37.37 0 00-.37-.37h-.02zM83.84 176v.73a.37.37 0 100-.73zM87.85 176.72a.37.37 0 100-.73.35.35 0 00-.36.36c0 .2.16.365.36.37zM95.87 176a.36.36 0 00-.37.36.38.38 0 00.38.37.37.37 0 100-.73h-.01zM91.87 176.72a.37.37 0 000-.73.36.36 0 00-.36.36c0 .2.16.365.36.37zM83.86 183.12v.72a.35.35 0 00.3-.35.38.38 0 00-.3-.37zM87.85 183.86a.37.37 0 00.37-.37.36.36 0 00-.37-.37.35.35 0 00-.36.37.38.38 0 00.36.37zM91.87 183.86a.37.37 0 00.36-.37.36.36 0 00-.36-.37.36.36 0 00-.36.37.38.38 0 00.36.37zM95.87 183.12a.36.36 0 00-.37.37.38.38 0 00.38.37.38.38 0 00.37-.37.37.37 0 00-.37-.37h-.01z" fill="#000" fill-rule="nonzero"/></g></svg>