<svg data-name="Layer 1" viewBox="0 0 60.97 65.77" xmlns="http://www.w3.org/2000/svg"><path class="cls-1" fill="#ff946d" d="M46.75 13.78v6.7h-.13v23.88l-8.42 9.48H14.4V13.78h-3.57v44.39h39.31V13.78z"/><path d="M27.97 24.19h13.88v.94H27.97zM27.97 26.58h7.41v.94h-7.41zM27.97 37.27h13.88v.94H27.97zM27.97 39.66h7.41v.94h-7.41z"/><path d="M39.77 13.31v-2.53h-5.09a4.09 4.09 0 00-8.13 0h-5.09v2.53h-11.1v45.33h40.25V13.31zm-9.16-5.24a3.18 3.18 0 013.13 2.71h-6.25a3.16 3.16 0 013.12-2.71zm-8.21 3.65h16.43v4.74H22.4zm-7.53 2.53h6.59v3.15h18.31v-3.15h6.38v29.31h-8.42v9.81H14.87zm31 30.25l-7.21 8.11V44.5zm3.8 13.2H11.3V14.25h2.63v40.06h24.48l8.68-9.77V14.25h2.58z"/><path d="M48.17 17a.38.38 0 01-.38-.37.37.37 0 01.37-.37.38.38 0 01.37.37.37.37 0 01-.36.37zM12 17a.37.37 0 010-.74.37.37 0 01.37.37.36.36 0 01-.37.37zM47 34.86a.38.38 0 01-.37-.37.36.36 0 01.36-.37.37.37 0 010 .74zM10.83 34.86a.38.38 0 01-.37-.37.37.37 0 01.36-.37.37.37 0 110 .74zM48.17 38.42a.38.38 0 01-.38-.36.36.36 0 01.37-.37.37.37 0 110 .73zM12 38.42a.37.37 0 01-.37-.36.36.36 0 01.36-.37.37.37 0 110 .73zM47 42a.37.37 0 01-.37-.37.36.36 0 01.36-.37.38.38 0 01.37.37.37.37 0 01-.36.37zM10.83 42a.37.37 0 010-.74.37.37 0 01.37.37.36.36 0 01-.37.37zM48.17 45.56a.38.38 0 01-.38-.37.37.37 0 01.37-.37.37.37 0 010 .74zM12 45.56a.38.38 0 01-.37-.37.37.37 0 01.36-.37.37.37 0 010 .74zM47 20.59a.38.38 0 01-.37-.37.36.36 0 01.36-.37.37.37 0 110 .74zM10.83 20.59a.38.38 0 01-.37-.37.37.37 0 01.36-.37.37.37 0 110 .74zM48.17 24.16a.38.38 0 01-.38-.37.36.36 0 01.37-.37.37.37 0 01.37.37.38.38 0 01-.36.37zM12 24.16a.38.38 0 01-.37-.37.36.36 0 01.36-.37.36.36 0 01.37.37.37.37 0 01-.36.37zM47 27.72a.37.37 0 01-.37-.37A.35.35 0 0147 27a.37.37 0 110 .73zM10.83 27.72a.37.37 0 01-.37-.37.36.36 0 01.36-.36.37.37 0 110 .73zM48.17 31.29a.38.38 0 01-.38-.37.37.37 0 01.37-.37.38.38 0 01.37.37.37.37 0 01-.36.37zM12 31.29a.37.37 0 010-.74.37.37 0 01.37.37.36.36 0 01-.37.37zM47 49.13a.38.38 0 01-.37-.37.35.35 0 01.36-.37.37.37 0 01.37.37.38.38 0 01-.36.37zM43 49.13a.38.38 0 01-.38-.37.36.36 0 01.36-.37.37.37 0 01.37.37.38.38 0 01-.35.37zM10.83 49.13a.38.38 0 01-.37-.37.36.36 0 01.36-.37.36.36 0 01.37.37.37.37 0 01-.36.37zM48.17 52.69a.38.38 0 01-.38-.37.36.36 0 01.37-.36.37.37 0 110 .73zM44.16 52.69a.37.37 0 01-.38-.37.36.36 0 01.36-.36.37.37 0 010 .73zM40.14 52.69a.37.37 0 01-.37-.37.35.35 0 01.36-.36.37.37 0 110 .73zM12 52.69a.37.37 0 01-.37-.37A.36.36 0 0112 52a.37.37 0 110 .73zM47 56.26a.37.37 0 01-.37-.37.36.36 0 01.36-.37.38.38 0 01.37.37.37.37 0 01-.36.37zM43 56.26a.37.37 0 01-.38-.37.37.37 0 01.36-.37.38.38 0 01.37.37.37.37 0 01-.35.37zM38.93 56.26a.37.37 0 010-.74.37.37 0 01.37.37.36.36 0 01-.37.37zM34.92 56.26a.38.38 0 01-.38-.37.37.37 0 01.36-.37.38.38 0 01.37.37.37.37 0 01-.35.37zM30.9 56.26a.37.37 0 010-.74.37.37 0 01.37.37.36.36 0 01-.37.37zM26.89 56.26a.37.37 0 01-.37-.37.36.36 0 01.36-.37.38.38 0 01.37.37.37.37 0 01-.36.37zM22.88 56.26a.37.37 0 01-.38-.37.37.37 0 01.36-.37.38.38 0 01.37.37.37.37 0 01-.35.37zM18.86 56.26a.37.37 0 01-.37-.37.36.36 0 01.36-.37.37.37 0 01.37.37.36.36 0 01-.36.37zM14.85 56.26a.37.37 0 01-.38-.37.37.37 0 01.36-.37.38.38 0 01.37.37.37.37 0 01-.35.37zM10.83 56.26a.37.37 0 010-.74.37.37 0 01.37.37.36.36 0 01-.37.37zM22.56 29.5a3.65 3.65 0 113.64-3.64 3.65 3.65 0 01-3.64 3.64zm0-6.35a2.71 2.71 0 102.7 2.71 2.71 2.71 0 00-2.7-2.71z"/><path d="M22.71 27.5l-1.53-1.38.63-.7.82.74 3.69-4.23.71.62zM22.56 42.58a3.65 3.65 0 113.64-3.65 3.66 3.66 0 01-3.64 3.65zm0-6.35a2.71 2.71 0 102.7 2.7 2.7 2.7 0 00-2.7-2.7z"/><path d="M22.71 40.57l-1.53-1.37.63-.7.82.74 3.69-4.23.71.62z"/></svg>