<svg width="84" height="84" fill="none" xmlns="http://www.w3.org/2000/svg"><path fill-rule="evenodd" clip-rule="evenodd" d="M25.285 47.858c3.888 2.956 8.723 4.73 13.985 4.73.307 0 .603-.033.907-.045l-8.892 19.9-4.26-9.703-9.701 3.313 3.144-7.184.776-1.775.98-2.242 3.061-6.994zm33.922-6.681L70.09 66.054l-9.702-3.313-4.26 9.703-9.424-21.097a23.191 23.191 0 0012.502-10.17z" fill="#F4B10E"/><path fill-rule="evenodd" clip-rule="evenodd" d="M14.668 71.743v2.627h2.656v1.502h-2.656V78.5H13.15v-2.627h-2.655V74.37h2.655v-2.627h1.518zM39.271 5.5c13.191 0 23.923 10.62 23.923 23.674 0 5.793-2.13 11.091-5.634 15.21l-.304.35 9.703 21.948-10.673-3.605-4.668 10.52-9.455-20.94c-.95.114-1.912.19-2.892.19-.827 0-1.64-.055-2.443-.142l-.601-.07-9.466 20.962-4.668-10.52-10.673 3.605 9.756-22.067c-3.52-4.036-5.705-9.243-5.823-14.95l-.006-.49h1.519a21.88 21.88 0 003.78 12.313.614.614 0 01.36-.116c.337 0 .616.27.616.604a.601.601 0 01-.264.5c.41.543.848 1.066 1.309 1.57a.613.613 0 011.117.343.598.598 0 01-.288.514c.585.576 1.204 1.12 1.852 1.63a.61.61 0 01.543-.331c.337 0 .616.27.616.604a.6.6 0 01-.196.446 22.449 22.449 0 0012.96 4.093c2.779 0 5.441-.503 7.899-1.422a.597.597 0 01-.184-.43c0-.334.272-.605.61-.605.336 0 .616.27.616.604l-.002.012c5.19-2.244 9.362-6.379 11.62-11.52l.174-.408h-.012a.604.604 0 01-.512-.594c0-.333.274-.603.61-.603.125 0 .24.036.337.099a21.875 21.875 0 001.249-7.304c0-2.485-.416-4.876-1.181-7.108a.589.589 0 01-.39.144h-.014a.607.607 0 01-.61-.602c0-.334.273-.603.61-.603l.01.002c-2.221-5.528-6.626-9.969-12.155-12.275a.584.584 0 01-.336.103h-.015a.607.607 0 01-.594-.472 22.49 22.49 0 00-7.73-1.36c-2.03 0-4.02.265-5.927.779a.598.598 0 01-.39 1.053h-.015a.604.604 0 01-.587-.76 22.25 22.25 0 00-5.849 2.872l.005-.06a.599.599 0 01-.601.603h-.016a.618.618 0 01-.123-.013c-.655.491-1.287 1.02-1.892 1.588l-.19.183a.599.599 0 01-.502.928h-.016a.607.607 0 01-.61-.602c0-.254.158-.47.382-.56l-.586-.58C26.872 7.965 32.88 5.5 39.27 5.5zM22.296 45.833l-8.102 18.325 8.728-2.95 3.851 8.68 7.898-17.49a23.972 23.972 0 01-12.375-6.565zm33.839.113a23.957 23.957 0 01-11.92 6.376l-.495.097 7.886 17.469 3.851-8.68 8.73 2.95-8.052-18.212zm-23.196 2.942c.335 0 .616.27.616.604 0 .332-.264.601-.601.601h-.015a.604.604 0 01-.609-.6c0-.334.272-.605.609-.605zm4.885 0c.337 0 .617.27.617.604 0 .332-.266.601-.602.601h-.015a.604.604 0 01-.608-.6c0-.334.271-.605.608-.605zm4.886 0c.335 0 .616.27.616.604 0 .332-.264.601-.601.601h-.015a.604.604 0 01-.609-.6c0-.334.272-.605.609-.605zm7.61-2.686c.335 0 .616.27.616.604 0 .332-.266.6-.601.6h-.015a.606.606 0 01-.61-.6c0-.334.273-.604.61-.604zm-9.773 0c.337 0 .617.27.617.604 0 .332-.264.6-.6.6h-.017a.605.605 0 01-.608-.6c0-.334.273-.604.608-.604zm-4.884 0c.336 0 .615.27.615.604 0 .332-.264.6-.601.6h-.014a.606.606 0 01-.61-.6c0-.334.273-.604.61-.604zm-4.887 0c.337 0 .617.27.617.604 0 .332-.264.6-.6.6h-.017a.605.605 0 01-.608-.6c0-.334.273-.604.608-.604zm14.658 0c.336 0 .615.27.615.604 0 .332-.264.6-.601.6h-.014a.606.606 0 01-.61-.6c0-.334.273-.604.61-.604zm25.416-7.545v2.628h2.655v1.502H70.85v2.627h-1.518v-2.627h-2.656v-1.502h2.656v-2.628h1.518zm-18.37 5.127c.338 0 .617.27.617.604 0 .332-.264.601-.601.601h-.015a.605.605 0 01-.61-.6c0-.334.274-.605.61-.605zm-9.77 0c.335 0 .616.27.616.604 0 .332-.264.601-.601.601h-.015a.604.604 0 01-.61-.6c0-.334.273-.605.61-.605zm4.885 0c.337 0 .617.27.617.604 0 .332-.265.601-.602.601h-.015a.604.604 0 01-.609-.6c0-.334.272-.605.61-.605zm-9.77 0c.336 0 .615.27.615.604 0 .332-.265.601-.6.601h-.016a.604.604 0 01-.609-.6c0-.334.272-.605.61-.605zm-4.886 0c.335 0 .616.27.616.604 0 .332-.264.601-.601.601h-.015a.604.604 0 01-.61-.6c0-.334.273-.605.61-.605zm-4.886 0c.337 0 .617.27.617.604 0 .332-.266.601-.602.601h-.015a.604.604 0 01-.609-.6c0-.334.272-.605.61-.605zm11.217-28.98c1.976 0 3.86.393 5.579 1.102a.606.606 0 01.585-.438c.336 0 .615.27.615.604a.602.602 0 01-.105.342 14.514 14.514 0 016.769 7.323.601.601 0 01.316.836c.494 1.445.763 2.992.763 4.6 0 1.718-.306 3.367-.867 4.895a.599.599 0 01-.42 1.018 14.524 14.524 0 01-6.464 6.799.6.6 0 01-.593.694h-.014a.612.612 0 01-.449-.195 14.564 14.564 0 01-5.715 1.16c-8.006 0-14.52-6.446-14.52-14.37 0-3.613 1.354-6.919 3.586-9.446a.575.575 0 01-.268.064h-.015a.607.607 0 01-.609-.602c0-.334.273-.604.609-.604.337 0 .616.27.616.604 0 .077-.014.15-.04.218a14.548 14.548 0 0110.641-4.604zm-8.494 26.568c.337 0 .617.27.617.604a.599.599 0 01-.6.603h-.017a.607.607 0 01-.608-.603c0-.333.273-.604.608-.604zm19.544 0c.335 0 .616.27.616.604a.6.6 0 01-.601.603h-.015a.607.607 0 01-.61-.603c0-.333.273-.604.61-.604zm4.885 0c.336 0 .615.27.615.604a.6.6 0 01-.601.603h-.014a.607.607 0 01-.61-.603c0-.333.273-.604.61-.604zm-29.314 0c.337 0 .616.27.616.604a.6.6 0 01-.6.603h-.016a.607.607 0 01-.609-.603c0-.333.273-.604.609-.604zm13.38-25.066c-7.17 0-13.004 5.774-13.004 12.867 0 7.096 5.833 12.869 13.003 12.869 4.29 0 8.1-2.066 10.47-5.244a.598.598 0 01.213-.298 12.689 12.689 0 002.32-7.327c0-7.093-5.832-12.867-13.003-12.867zm-16.103 22.57c.335 0 .616.27.616.603 0 .332-.264.601-.601.601h-.015a.606.606 0 01-.61-.6c0-.334.273-.604.61-.604zm29.313 0c.337 0 .616.27.616.603 0 .332-.264.601-.601.601h-.015a.605.605 0 01-.61-.6c0-.334.274-.604.61-.604zm4.885 0c.337 0 .616.27.616.603 0 .332-.264.601-.6.601h-.016a.604.604 0 01-.609-.6c0-.334.272-.604.609-.604zm-29.313 0c.337 0 .617.27.617.603 0 .332-.266.601-.602.601h-.015a.604.604 0 01-.609-.6c0-.334.272-.604.61-.604zm-2.162-2.497c.337 0 .616.27.616.603a.598.598 0 01-.6.601h-.016a.605.605 0 01-.609-.6c0-.334.273-.604.609-.604zm-4.886 0c.338 0 .617.27.617.603a.598.598 0 01-.601.601h-.016a.605.605 0 01-.608-.6c0-.334.273-.604.608-.604zm34.2 0c.336 0 .615.27.615.603a.598.598 0 01-.601.601h-.014a.606.606 0 01-.61-.6c0-.334.273-.604.61-.604zM39.271 21.466l2.946 5.224 5.246.665-3.803 4.248.674 5.281-5.128-2.534-4.996 2.534.681-5.61-3.81-3.919 5.142-.665 3.048-5.224zM23.167 33.882c.337 0 .617.269.617.602a.599.599 0 01-.601.602h-.015a.606.606 0 01-.61-.602c0-.334.272-.602.61-.602zm34.199 0c.337 0 .616.269.616.602a.599.599 0 01-.6.602h-.016a.607.607 0 01-.61-.602c0-.334.274-.602.61-.602zm-39.084 0c.335 0 .616.269.616.602a.6.6 0 01-.6.602h-.016a.606.606 0 01-.609-.602c0-.334.272-.602.609-.602zm36.923-2.687a.61.61 0 01.615.603.6.6 0 01-.601.602h-.014a.607.607 0 01-.61-.602c0-.334.273-.603.61-.603zm-34.2 0c.338 0 .617.27.617.603a.6.6 0 01-.601.602h-.016a.607.607 0 01-.608-.602c0-.334.273-.603.608-.603zm39.086 0a.61.61 0 01.614.603.599.599 0 01-.6.602h-.014a.607.607 0 01-.61-.602c0-.334.273-.603.61-.603zm-2.725-2.498c.337 0 .616.27.616.604a.599.599 0 01-.6.602h-.016a.607.607 0 01-.61-.602c0-.334.274-.604.61-.604zm-34.199 0c.337 0 .617.27.617.604a.599.599 0 01-.601.602h-.015a.606.606 0 01-.61-.602c0-.334.272-.604.61-.604zm-4.885 0c.335 0 .616.27.616.604a.6.6 0 01-.6.602h-.016a.606.606 0 01-.609-.602c0-.334.272-.604.609-.604zm41.809-2.686c.337 0 .614.27.614.604a.599.599 0 01-.6.602h-.014a.607.607 0 01-.61-.602c0-.334.273-.604.61-.604zm-39.086 0c.338 0 .617.27.617.604a.6.6 0 01-.601.602h-.016a.607.607 0 01-.608-.602c0-.334.273-.604.608-.604zm34.2 0c.336 0 .615.27.615.604a.6.6 0 01-.601.602h-.014a.607.607 0 01-.61-.602c0-.334.273-.604.61-.604zm-32.038-2.32c.337 0 .617.27.617.603a.599.599 0 01-.601.602h-.015a.606.606 0 01-.61-.602c0-.334.272-.603.61-.603zm-4.885 0c.335 0 .616.27.616.603a.6.6 0 01-.6.602h-.016a.606.606 0 01-.609-.602c0-.334.272-.603.609-.603zm39.084 0c.337 0 .616.27.616.603a.599.599 0 01-.6.602h-.016a.607.607 0 01-.61-.602c0-.334.274-.603.61-.603zM25.89 21.005c.337 0 .616.269.616.603a.6.6 0 01-.6.602h-.016a.607.607 0 01-.609-.602c0-.334.273-.603.609-.603zm-4.886 0c.338 0 .617.269.617.603a.6.6 0 01-.601.602h-.016a.607.607 0 01-.608-.602c0-.334.273-.603.608-.603zm34.2 0a.61.61 0 01.615.603.6.6 0 01-.601.602h-.014a.607.607 0 01-.61-.602c0-.334.273-.603.61-.603zm-2.723-2.42c.335 0 .615.271.615.605a.599.599 0 01-.602.602h-.013a.607.607 0 01-.61-.602c0-.334.273-.604.61-.604zm4.884 0c.337 0 .616.271.616.605a.599.599 0 01-.6.602h-.016a.607.607 0 01-.61-.602c0-.334.274-.604.61-.604zm-34.199 0c.337 0 .617.271.617.605a.599.599 0 01-.601.602h-.015a.606.606 0 01-.61-.602c0-.334.272-.604.61-.604zm-4.885 0c.335 0 .616.271.616.605a.6.6 0 01-.6.602h-.016a.606.606 0 01-.609-.602c0-.334.272-.604.609-.604zm36.923-3.117c.336 0 .615.27.615.604 0 .332-.264.601-.601.601h-.014a.606.606 0 01-.61-.6c0-.334.273-.605.61-.605zm-29.314 0c.337 0 .616.27.616.604 0 .332-.264.601-.6.601h-.016a.605.605 0 01-.609-.6c0-.334.273-.605.609-.605zm-4.886 0c.338 0 .617.27.617.604 0 .332-.264.601-.601.601h-.016a.605.605 0 01-.608-.6c0-.334.273-.605.608-.605zm29.315 0c.335 0 .616.27.616.604 0 .332-.266.601-.601.601h-.015a.606.606 0 01-.61-.6c0-.334.273-.605.61-.605zm-19.544 0c.337 0 .617.27.617.604 0 .332-.264.601-.6.601h-.017a.605.605 0 01-.608-.6c0-.334.273-.605.608-.605zm16.82-2.497c.336 0 .616.27.616.603a.6.6 0 01-.602.602h-.015a.606.606 0 01-.609-.602c0-.334.272-.603.61-.603zm-9.772 0c.337 0 .617.27.617.603a.6.6 0 01-.602.602h-.015a.606.606 0 01-.609-.602c0-.334.272-.603.61-.603zm14.657 0c.337 0 .616.27.616.603a.599.599 0 01-.601.602h-.015a.606.606 0 01-.61-.602c0-.334.274-.603.61-.603zm-9.771 0c.335 0 .616.27.616.603a.6.6 0 01-.601.602h-.015a.606.606 0 01-.61-.602c0-.334.273-.603.61-.603zm-14.657 0c.337 0 .617.27.617.603a.6.6 0 01-.602.602h-.015a.606.606 0 01-.609-.602c0-.334.272-.603.61-.603zm4.886 0c.335 0 .616.27.616.603a.6.6 0 01-.601.602h-.015a.606.606 0 01-.61-.602c0-.334.273-.603.61-.603zm12.494-2.686c.337 0 .617.269.617.602a.6.6 0 01-.602.603h-.015a.607.607 0 01-.609-.603c0-.333.274-.602.61-.602zm4.887 0a.61.61 0 01.615.602.6.6 0 01-.601.603h-.014a.607.607 0 01-.61-.603c0-.333.273-.602.61-.602zm-9.772 0c.337 0 .616.269.616.602a.6.6 0 01-.601.603h-.015a.606.606 0 01-.609-.603c0-.333.272-.602.609-.602zm-4.886 0c.337 0 .617.269.617.602a.6.6 0 01-.602.603h-.015a.607.607 0 01-.608-.603c0-.333.273-.602.608-.602zm-4.885 0c.337 0 .616.269.616.602a.6.6 0 01-.601.603h-.015a.606.606 0 01-.609-.603c0-.333.272-.602.609-.602zm7.047-2.655c.337 0 .617.27.617.604 0 .332-.266.6-.602.6h-.015a.604.604 0 01-.608-.6c0-.334.271-.604.608-.604zm4.886 0c.335 0 .616.27.616.604 0 .332-.264.6-.601.6h-.015a.604.604 0 01-.609-.6c0-.334.272-.604.609-.604z" fill="#000"/></svg>