<svg width="311" height="109" fill="none" xmlns="http://www.w3.org/2000/svg"><rect y="47" width="311" height="16" rx="8" fill="#F2F2F2"/><rect y="47" width="204" height="16" rx="8" fill="#D1FFEF"/><path d="M.78 78.86V86h4.73v-.8H1.73v-6.34H.78zm6.037 4.56c0-.313.04-.59.12-.83.086-.247.203-.453.35-.62.146-.167.316-.293.51-.38a1.567 1.567 0 011.25 0c.2.087.373.213.52.38.146.167.26.373.34.62.086.24.13.517.13.83 0 .313-.044.593-.13.84-.08.24-.194.443-.34.61-.147.16-.32.283-.52.37a1.567 1.567 0 01-1.25 0 1.542 1.542 0 01-.51-.37 1.877 1.877 0 01-.35-.61 2.719 2.719 0 01-.12-.84zm-.9 0c0 .38.053.733.16 1.06.106.327.266.613.48.86.213.24.476.43.79.57.313.133.673.2 1.08.2.413 0 .773-.067 1.08-.2.313-.14.576-.33.79-.57a2.47 2.47 0 00.48-.86c.106-.327.16-.68.16-1.06s-.054-.733-.16-1.06a2.356 2.356 0 00-.48-.86 2.232 2.232 0 00-.79-.58 2.58 2.58 0 00-1.08-.21c-.407 0-.767.07-1.08.21-.314.14-.577.333-.79.58-.214.24-.374.527-.48.86-.107.327-.16.68-.16 1.06zM17.059 86l1.65-5.17h-.88l-1.16 4.23h-.02l-1.08-4.23h-.93l-1.04 4.23h-.02l-1.17-4.23h-.94l1.66 5.17h.92l1.04-4.11h.02l1.05 4.11h.9zm6.048-3.08h-2.97c.013-.2.057-.387.13-.56a1.49 1.49 0 01.3-.47c.127-.133.277-.237.45-.31.18-.08.38-.12.6-.12.213 0 .407.04.58.12.18.073.333.177.46.31.133.127.237.28.31.46.08.18.127.37.14.57zm.82 1.44h-.84c-.073.34-.227.593-.46.76-.227.167-.52.25-.88.25-.28 0-.523-.047-.73-.14a1.46 1.46 0 01-.51-.37c-.133-.16-.23-.34-.29-.54a2.095 2.095 0 01-.08-.65h3.87a3.97 3.97 0 00-.09-.99 2.734 2.734 0 00-.38-.96 2.157 2.157 0 00-.73-.72c-.3-.193-.68-.29-1.14-.29-.353 0-.68.067-.98.2-.293.133-.55.32-.77.56-.213.24-.38.523-.5.85-.12.327-.18.687-.18 1.08.013.393.07.757.17 1.09.107.333.263.62.47.86.207.24.46.427.76.56.307.133.667.2 1.08.2.587 0 1.073-.147 1.46-.44.387-.293.637-.73.75-1.31zm1.481.01h-.85c.013.32.08.593.2.82.12.22.28.4.48.54.2.133.43.23.69.29.26.06.533.09.82.09.26 0 .52-.027.78-.08.267-.047.503-.133.71-.26.213-.127.383-.293.51-.5.133-.207.2-.467.2-.78a1.186 1.186 0 00-.53-1.03 1.863 1.863 0 00-.54-.27 6.038 6.038 0 00-.62-.17c-.2-.047-.4-.09-.6-.13-.2-.047-.38-.1-.54-.16a1.45 1.45 0 01-.4-.24.503.503 0 01-.15-.37c0-.133.033-.24.1-.32a.65.65 0 01.26-.2c.107-.053.223-.09.35-.11.133-.02.263-.03.39-.03.14 0 .277.017.41.05.14.027.267.073.38.14a.833.833 0 01.41.68h.85c-.02-.313-.087-.573-.2-.78a1.283 1.283 0 00-.46-.5 1.708 1.708 0 00-.65-.26 3.836 3.836 0 00-.81-.08c-.227 0-.457.03-.69.09-.227.053-.433.14-.62.26-.18.113-.33.263-.45.45-.113.187-.17.41-.17.67 0 .333.083.593.25.78.167.187.373.333.62.44.253.1.527.18.82.24.293.053.563.117.81.19.253.067.463.157.63.27.167.113.25.28.25.5 0 .16-.04.293-.12.4a.772.772 0 01-.31.23 1.47 1.47 0 01-.4.11 3.11 3.11 0 01-.42.03c-.173 0-.343-.017-.51-.05a1.573 1.573 0 01-.44-.16.983.983 0 01-.31-.31.987.987 0 01-.13-.48zm5.66-3.54v-1.55h-.85v1.55h-.88v.75h.88v3.29c0 .24.023.433.07.58.047.147.117.26.21.34.1.08.227.137.38.17.16.027.35.04.57.04h.65v-.75h-.39c-.133 0-.243-.003-.33-.01a.453.453 0 01-.19-.07.272.272 0 01-.1-.14c-.013-.06-.02-.14-.02-.24v-3.21h1.03v-.75h-1.03zM277.522 78.86V86h.95v-3.27h3.76V86h.95v-7.14h-.95v3.07h-3.76v-3.07h-.95zm7.977 1.04v-1.04h-.85v1.04h.85zm-.85.93V86h.85v-5.17h-.85zm6.627 4.73v-4.73h-.8v.74h-.01a1.488 1.488 0 00-.64-.64 1.877 1.877 0 00-.9-.22c-.447 0-.824.087-1.13.26a2.115 2.115 0 00-.74.65c-.187.26-.32.553-.4.88-.08.32-.12.633-.12.94 0 .353.046.69.14 1.01.1.313.246.59.44.83.193.233.433.42.72.56.286.14.623.21 1.01.21.333 0 .646-.073.94-.22.3-.153.523-.39.67-.71h.02v.34c0 .287-.03.55-.09.79-.054.24-.144.443-.27.61a1.274 1.274 0 01-.48.4c-.194.1-.43.15-.71.15-.14 0-.287-.017-.44-.05a1.539 1.539 0 01-.43-.14 1.131 1.131 0 01-.33-.26.639.639 0 01-.14-.39h-.85c.013.28.086.517.22.71.133.193.3.35.5.47.206.12.433.207.68.26.253.053.5.08.74.08.826 0 1.433-.21 1.82-.63.386-.42.58-1.053.58-1.9zm-2.38-.25c-.28 0-.514-.057-.7-.17a1.405 1.405 0 01-.45-.46 2.018 2.018 0 01-.24-.64 3.536 3.536 0 01-.07-.7c0-.247.026-.483.08-.71.06-.227.15-.427.27-.6.126-.173.286-.31.48-.41.193-.107.426-.16.7-.16.266 0 .493.053.68.16.186.107.336.25.45.43.12.173.206.37.26.59a2.851 2.851 0 01-.01 1.39c-.054.24-.14.457-.26.65-.12.187-.28.34-.48.46-.194.113-.43.17-.71.17zm3.662-6.45V86h.85v-2.92c0-.233.03-.447.09-.64.067-.2.163-.373.29-.52.127-.147.283-.26.47-.34.193-.08.42-.12.68-.12.327 0 .583.093.77.28.187.187.28.44.28.76V86h.85v-3.4c0-.28-.03-.533-.09-.76a1.399 1.399 0 00-.29-.6 1.394 1.394 0 00-.55-.39c-.227-.093-.51-.14-.85-.14-.153 0-.313.017-.48.05-.16.033-.317.087-.47.16-.147.067-.28.157-.4.27-.12.107-.213.24-.28.4h-.02v-2.73h-.85zm9.147 4.06h-2.97a1.695 1.695 0 01.43-1.03c.126-.133.276-.237.45-.31.18-.08.38-.12.6-.12.213 0 .406.04.58.12.18.073.333.177.46.31.133.127.236.28.31.46.08.18.126.37.14.57zm.82 1.44h-.84c-.074.34-.227.593-.46.76-.227.167-.52.25-.88.25a1.76 1.76 0 01-.73-.14 1.454 1.454 0 01-.51-.37c-.134-.16-.23-.34-.29-.54a2.086 2.086 0 01-.08-.65h3.87a3.998 3.998 0 00-.09-.99 2.751 2.751 0 00-.38-.96 2.162 2.162 0 00-.73-.72c-.3-.193-.68-.29-1.14-.29-.354 0-.68.067-.98.2-.294.133-.55.32-.77.56-.214.24-.38.523-.5.85-.12.327-.18.687-.18 1.08.013.393.07.757.17 1.09.106.333.263.62.47.86.206.24.46.427.76.56.306.133.666.2 1.08.2.586 0 1.073-.147 1.46-.44.386-.293.636-.73.75-1.31zm1.481.01h-.85c.013.32.08.593.2.82.12.22.28.4.48.54.2.133.43.23.69.29.26.06.533.09.82.09.26 0 .52-.027.78-.08.266-.047.503-.133.71-.26.213-.127.383-.293.51-.5.133-.207.2-.467.2-.78a1.186 1.186 0 00-.53-1.03 1.881 1.881 0 00-.54-.27 6.066 6.066 0 00-.62-.17c-.2-.047-.4-.09-.6-.13-.2-.047-.38-.1-.54-.16a1.44 1.44 0 01-.4-.24.503.503 0 01-.15-.37c0-.133.033-.24.1-.32a.643.643 0 01.26-.2c.106-.053.223-.09.35-.11.133-.02.263-.03.39-.03.14 0 .276.017.41.05.14.027.266.073.38.14a.84.84 0 01.41.68h.85c-.02-.313-.087-.573-.2-.78a1.29 1.29 0 00-.46-.5 1.715 1.715 0 00-.65-.26 3.842 3.842 0 00-.81-.08c-.227 0-.457.03-.69.09-.227.053-.434.14-.62.26-.18.113-.33.263-.45.45a1.26 1.26 0 00-.17.67c0 .333.083.593.25.78.166.187.373.333.62.44.253.1.526.18.82.24.293.053.563.117.81.19.253.067.463.157.63.27.166.113.25.28.25.5 0 .16-.04.293-.12.4a.777.777 0 01-.31.23c-.12.053-.254.09-.4.11a3.12 3.12 0 01-.42.03c-.174 0-.344-.017-.51-.05a1.569 1.569 0 01-.44-.16.98.98 0 01-.31-.31.98.98 0 01-.13-.48zm5.66-3.54v-1.55h-.85v1.55h-.88v.75h.88v3.29c0 .24.023.433.07.58.046.147.116.26.21.34.1.08.226.137.38.17.16.027.35.04.57.04h.65v-.75h-.39c-.134 0-.244-.003-.33-.01a.45.45 0 01-.19-.07.27.27 0 01-.1-.14c-.014-.06-.02-.14-.02-.24v-3.21h1.03v-.75h-1.03z" fill="#909090"/><mask id="a" fill="#fff"><path fill-rule="evenodd" clip-rule="evenodd" d="M160 72l-5-5-5 5h-34a2 2 0 00-2 2v33a2 2 0 002 2h78a2 2 0 002-2V74a2 2 0 00-2-2h-34z"/></mask><path d="M155 67l.707-.707-.707-.707-.707.707L155 67zm5 5l-.707.707.293.293H160v-1zm-10 0v1h.414l.293-.293L150 72zm4.293-4.293l5 5 1.414-1.414-5-5-1.414 1.414zm-3.586 5l5-5-1.414-1.414-5 5 1.414 1.414zM116 73h34v-2h-34v2zm-1 1a1 1 0 011-1v-2a3 3 0 00-3 3h2zm0 33V74h-2v33h2zm1 1a1 1 0 01-1-1h-2a3 3 0 003 3v-2zm78 0h-78v2h78v-2zm1-1a1 1 0 01-1 1v2a3 3 0 003-3h-2zm0-33v33h2V74h-2zm-1-1a1 1 0 011 1h2a3 3 0 00-3-3v2zm-34 0h34v-2h-34v2z" fill="#ECECEC" mask="url(#a)"/><path d="M123.692 98.358H122c.08.944.372 1.66.876 2.148.504.488 1.204.764 2.1.828v1.02h.708v-1.02c.6-.04 1.092-.16 1.476-.36.384-.2.688-.428.912-.684.232-.256.392-.516.48-.78.088-.272.132-.496.132-.672 0-.2-.016-.428-.048-.684a1.836 1.836 0 00-.264-.768c-.152-.256-.388-.5-.708-.732-.32-.24-.776-.44-1.368-.6a6.508 6.508 0 00-.324-.084l-.288-.072v-2.124c.272 0 .504.112.696.336.192.224.292.496.3.816h1.704a2.75 2.75 0 00-.264-1.08 2.317 2.317 0 00-.588-.756 2.558 2.558 0 00-.84-.48c-.312-.12-.648-.2-1.008-.24v-.924h-.708v.924a3.85 3.85 0 00-1.044.216 2.672 2.672 0 00-.888.492 2.402 2.402 0 00-.624.78 2.437 2.437 0 00-.228 1.08c0 .4.068.736.204 1.008.136.264.316.488.54.672.232.176.492.32.78.432.288.104.58.196.876.276.08.016.152.036.216.06.072.016.128.032.168.048v2.508a1.676 1.676 0 01-.924-.504c-.248-.264-.368-.624-.36-1.08zm1.992 1.584v-2.304c.472.128.804.272.996.432.2.152.3.384.3.696 0 .192-.04.36-.12.504-.08.136-.184.252-.312.348-.12.096-.26.172-.42.228-.152.048-.3.08-.444.096zm-.708-6.168v1.956c-.384-.088-.66-.204-.828-.348-.168-.144-.252-.348-.252-.612 0-.168.028-.312.084-.432a.886.886 0 01.252-.312.992.992 0 01.348-.192c.128-.04.26-.06.396-.06zm6.62 2.88l-2.988 4.488h2.112l1.908-2.964 1.872 2.964h2.244l-2.988-4.476 2.748-4.092h-2.064l-1.74 2.736-1.68-2.736h-2.184l2.76 4.08zm8.004 0l-2.988 4.488h2.112l1.908-2.964 1.872 2.964h2.244l-2.988-4.476 2.748-4.092h-2.064l-1.74 2.736-1.68-2.736h-2.184l2.76 4.08zm8.004 0l-2.988 4.488h2.112l1.908-2.964 1.872 2.964h2.244l-2.988-4.476 2.748-4.092h-2.064l-1.74 2.736-1.68-2.736h-2.184l2.76 4.08zm5.808 2.64v1.848h.864a.973.973 0 01-.048.372.97.97 0 01-.18.336c-.08.104-.176.192-.288.264a.893.893 0 01-.336.144v.864c.256-.04.496-.116.72-.228a1.99 1.99 0 00.6-.408c.168-.168.3-.368.396-.6.104-.224.156-.472.156-.744v-1.848h-1.884zm5.536-2.64l-2.988 4.488h2.112l1.908-2.964 1.872 2.964h2.244l-2.988-4.476 2.748-4.092h-2.064l-1.74 2.736-1.68-2.736h-2.184l2.76 4.08zm8.003 0l-2.988 4.488h2.112l1.908-2.964 1.872 2.964h2.244l-2.988-4.476 2.748-4.092h-2.064l-1.74 2.736-1.68-2.736h-2.184l2.76 4.08zm8.004 0l-2.988 4.488h2.112l1.908-2.964 1.872 2.964h2.244l-2.988-4.476 2.748-4.092h-2.064l-1.74 2.736-1.68-2.736h-2.184l2.76 4.08zM124.01 83.192l1.21-3.33h.02l1.19 3.33h-2.42zm.71-4.19l-2.78 7.14h.97l.8-2.15h3.02l.78 2.15h1.05l-2.79-7.14h-1.05zm6.559 7.14l1.89-5.17h-.89l-1.41 4.31h-.02l-1.45-4.31h-.95l1.92 5.17h.91zm6.26-3.08h-2.97a1.695 1.695 0 01.43-1.03c.126-.133.276-.237.45-.31.18-.08.38-.12.6-.12.213 0 .406.04.58.12.18.073.333.177.46.31.133.127.236.28.31.46.08.18.126.37.14.57zm.82 1.44h-.84c-.074.34-.227.593-.46.76-.227.167-.52.25-.88.25a1.76 1.76 0 01-.73-.14 1.454 1.454 0 01-.51-.37c-.134-.16-.23-.34-.29-.54a2.086 2.086 0 01-.08-.65h3.87a3.998 3.998 0 00-.09-.99 2.751 2.751 0 00-.38-.96 2.162 2.162 0 00-.73-.72c-.3-.193-.68-.29-1.14-.29-.354 0-.68.067-.98.2-.294.133-.55.32-.77.56-.214.24-.38.523-.5.85-.12.327-.18.687-.18 1.08.013.393.07.757.17 1.09.106.333.263.62.47.86.206.24.46.427.76.56.306.133.666.2 1.08.2.586 0 1.073-.147 1.46-.44.386-.293.636-.73.75-1.31zm.931-3.53v5.17h.85v-2.3c0-.333.033-.627.1-.88.066-.26.173-.48.32-.66.146-.18.34-.317.58-.41.24-.093.53-.14.87-.14v-.9c-.46-.013-.84.08-1.14.28-.3.2-.554.51-.76.93h-.02v-1.09h-.8zm7.94 5.15c-.147.087-.35.13-.61.13-.22 0-.397-.06-.53-.18-.127-.127-.19-.33-.19-.61-.234.28-.507.483-.82.61-.307.12-.64.18-1 .18-.234 0-.457-.027-.67-.08a1.543 1.543 0 01-.54-.25 1.246 1.246 0 01-.37-.44 1.576 1.576 0 01-.13-.67c0-.293.05-.533.15-.72.1-.187.23-.337.39-.45.166-.12.353-.21.56-.27.213-.06.43-.11.65-.15.233-.047.453-.08.66-.1.213-.027.4-.06.56-.1.16-.047.286-.11.38-.19a.481.481 0 00.14-.37.82.82 0 00-.11-.45.68.68 0 00-.27-.26c-.107-.06-.23-.1-.37-.12a2.703 2.703 0 00-.4-.03c-.36 0-.66.07-.9.21-.24.133-.37.39-.39.77h-.85c.013-.32.08-.59.2-.81.12-.22.28-.397.48-.53.2-.14.426-.24.68-.3.26-.06.536-.09.83-.09.233 0 .463.017.69.05.233.033.443.103.63.21.186.1.336.243.45.43.113.187.17.43.17.73v2.66c0 .2.01.347.03.44.026.093.106.14.24.14.073 0 .16-.017.26-.05v.66zm-1.38-2.65c-.107.08-.247.14-.42.18-.174.033-.357.063-.55.09-.187.02-.377.047-.57.08a1.967 1.967 0 00-.52.14.962.962 0 00-.38.29c-.094.12-.14.287-.14.5 0 .14.026.26.08.36.06.093.133.17.22.23.093.06.2.103.32.13.12.027.246.04.38.04.28 0 .52-.037.72-.11.2-.08.363-.177.49-.29.126-.12.22-.247.28-.38.06-.14.09-.27.09-.39v-.87zm6.631 2.23v-4.73h-.8v.74h-.01a1.483 1.483 0 00-.64-.64 1.87 1.87 0 00-.9-.22c-.447 0-.823.087-1.13.26a2.124 2.124 0 00-.74.65c-.187.26-.32.553-.4.88-.08.32-.12.633-.12.94 0 .353.047.69.14 1.01.1.313.247.59.44.83.193.233.433.42.72.56.287.14.623.21 1.01.21.333 0 .647-.073.94-.22.3-.153.523-.39.67-.71h.02v.34c0 .287-.03.55-.09.79a1.54 1.54 0 01-.27.61 1.274 1.274 0 01-.48.4c-.193.1-.43.15-.71.15-.14 0-.287-.017-.44-.05a1.55 1.55 0 01-.43-.14 1.131 1.131 0 01-.33-.26.645.645 0 01-.14-.39h-.85c.013.28.087.517.22.71.133.193.3.35.5.47.207.12.433.207.68.26.253.053.5.08.74.08.827 0 1.433-.21 1.82-.63.387-.42.58-1.053.58-1.9zm-2.38-.25c-.28 0-.513-.057-.7-.17a1.405 1.405 0 01-.45-.46 2.067 2.067 0 01-.24-.64 3.536 3.536 0 01-.07-.7c0-.247.027-.483.08-.71.06-.227.15-.427.27-.6.127-.173.287-.31.48-.41.193-.107.427-.16.7-.16.267 0 .493.053.68.16.187.107.337.25.45.43.12.173.207.37.26.59a2.851 2.851 0 01-.01 1.39c-.053.24-.14.457-.26.65-.12.187-.28.34-.48.46-.193.113-.43.17-.71.17zm7.252-2.39h-2.97c.013-.2.057-.387.13-.56a1.48 1.48 0 01.3-.47c.127-.133.277-.237.45-.31.18-.08.38-.12.6-.12.213 0 .407.04.58.12.18.073.333.177.46.31.133.127.237.28.31.46.08.18.127.37.14.57zm.82 1.44h-.84c-.073.34-.227.593-.46.76-.227.167-.52.25-.88.25-.28 0-.523-.047-.73-.14a1.454 1.454 0 01-.51-.37 1.52 1.52 0 01-.29-.54 2.086 2.086 0 01-.08-.65h3.87a3.998 3.998 0 00-.09-.99 2.732 2.732 0 00-.38-.96 2.154 2.154 0 00-.73-.72c-.3-.193-.68-.29-1.14-.29-.353 0-.68.067-.98.2-.293.133-.55.32-.77.56-.213.24-.38.523-.5.85-.12.327-.18.687-.18 1.08.013.393.07.757.17 1.09.107.333.263.62.47.86.207.24.46.427.76.56.307.133.667.2 1.08.2.587 0 1.073-.147 1.46-.44.387-.293.637-.73.75-1.31zm4.264.01h-.85c.014.32.08.593.2.82.12.22.28.4.48.54.2.133.43.23.69.29.26.06.534.09.82.09.26 0 .52-.027.78-.08a2 2 0 00.71-.26c.214-.127.384-.293.51-.5.134-.207.2-.467.2-.78a1.186 1.186 0 00-.53-1.03 1.856 1.856 0 00-.54-.27 5.996 5.996 0 00-.62-.17c-.2-.047-.4-.09-.6-.13-.2-.047-.38-.1-.54-.16a1.454 1.454 0 01-.4-.24.503.503 0 01-.15-.37c0-.133.034-.24.1-.32a.657.657 0 01.26-.2c.107-.053.224-.09.35-.11.134-.02.264-.03.39-.03.14 0 .277.017.41.05.14.027.267.073.38.14a.825.825 0 01.41.68h.85c-.02-.313-.086-.573-.2-.78a1.276 1.276 0 00-.46-.5 1.702 1.702 0 00-.65-.26 3.828 3.828 0 00-.81-.08c-.226 0-.456.03-.69.09-.226.053-.433.14-.62.26-.18.113-.33.263-.45.45a1.27 1.27 0 00-.17.67c0 .333.084.593.25.78.167.187.374.333.62.44.254.1.527.18.82.24.294.053.564.117.81.19.254.067.464.157.63.27.167.113.25.28.25.5 0 .16-.04.293-.12.4a.77.77 0 01-.31.23c-.12.053-.253.09-.4.11-.146.02-.286.03-.42.03-.173 0-.343-.017-.51-.05a1.58 1.58 0 01-.44-.16.99.99 0 01-.31-.31.99.99 0 01-.13-.48zm9.06 1.61c-.146.087-.35.13-.61.13-.22 0-.396-.06-.53-.18-.126-.127-.19-.33-.19-.61-.233.28-.506.483-.82.61-.306.12-.64.18-1 .18a2.76 2.76 0 01-.67-.08 1.56 1.56 0 01-.54-.25 1.267 1.267 0 01-.37-.44 1.59 1.59 0 01-.13-.67c0-.293.05-.533.15-.72.1-.187.23-.337.39-.45.167-.12.354-.21.56-.27.214-.06.43-.11.65-.15.234-.047.454-.08.66-.1.214-.027.4-.06.56-.1.16-.047.287-.11.38-.19.094-.087.14-.21.14-.37a.812.812 0 00-.11-.45.667.667 0 00-.27-.26c-.106-.06-.23-.1-.37-.12a2.683 2.683 0 00-.4-.03c-.36 0-.66.07-.9.21-.24.133-.37.39-.39.77h-.85c.014-.32.08-.59.2-.81.12-.22.28-.397.48-.53.2-.14.427-.24.68-.3.26-.06.537-.09.83-.09.234 0 .464.017.69.05.234.033.444.103.63.21.187.1.337.243.45.43.114.187.17.43.17.73v2.66c0 .2.01.347.03.44.027.093.107.14.24.14a.84.84 0 00.26-.05v.66zm-1.38-2.65a1.1 1.1 0 01-.42.18c-.173.033-.356.063-.55.09-.186.02-.376.047-.57.08a1.989 1.989 0 00-.52.14.969.969 0 00-.38.29c-.093.12-.14.287-.14.5 0 .14.027.26.08.36.06.093.134.17.22.23.094.06.2.103.32.13.12.027.247.04.38.04.28 0 .52-.037.72-.11.2-.08.364-.177.49-.29.127-.12.22-.247.28-.38.06-.14.09-.27.09-.39v-.87zm2.221-4.47v7.14h.85v-7.14h-.85zm6.747 7.12c-.146.087-.35.13-.61.13-.22 0-.396-.06-.53-.18-.126-.127-.19-.33-.19-.61-.233.28-.506.483-.82.61-.306.12-.64.18-1 .18a2.76 2.76 0 01-.67-.08 1.56 1.56 0 01-.54-.25 1.267 1.267 0 01-.37-.44 1.59 1.59 0 01-.13-.67c0-.293.05-.533.15-.72.1-.187.23-.337.39-.45.167-.12.354-.21.56-.27.214-.06.43-.11.65-.15.234-.047.454-.08.66-.1.214-.027.4-.06.56-.1.16-.047.287-.11.38-.19.094-.087.14-.21.14-.37a.812.812 0 00-.11-.45.667.667 0 00-.27-.26c-.106-.06-.23-.1-.37-.12a2.683 2.683 0 00-.4-.03c-.36 0-.66.07-.9.21-.24.133-.37.39-.39.77h-.85c.014-.32.08-.59.2-.81.12-.22.28-.397.48-.53.2-.14.427-.24.68-.3.26-.06.537-.09.83-.09.234 0 .464.017.69.05.234.033.444.103.63.21.187.1.337.243.45.43.114.187.17.43.17.73v2.66c0 .2.01.347.03.44.027.093.107.14.24.14a.84.84 0 00.26-.05v.66zm-1.38-2.65a1.1 1.1 0 01-.42.18c-.173.033-.356.063-.55.09-.186.02-.376.047-.57.08a1.989 1.989 0 00-.52.14.969.969 0 00-.38.29c-.093.12-.14.287-.14.5 0 .14.027.26.08.36.06.093.134.17.22.23.094.06.2.103.32.13.12.027.247.04.38.04.28 0 .52-.037.72-.11.2-.08.364-.177.49-.29.127-.12.22-.247.28-.38.06-.14.09-.27.09-.39v-.87zm2.141-2.5v5.17h.85v-2.3c0-.333.034-.627.1-.88.067-.26.174-.48.32-.66.147-.18.34-.317.58-.41.24-.093.53-.14.87-.14v-.9c-.46-.013-.84.08-1.14.28-.3.2-.553.51-.76.93h-.02v-1.09h-.8zm5.39 5.86c-.1.253-.2.467-.3.64a1.51 1.51 0 01-.32.42.952.952 0 01-.39.24c-.14.053-.303.08-.49.08-.1 0-.2-.007-.3-.02a1.427 1.427 0 01-.29-.07v-.78c.074.033.157.06.25.08.1.027.184.04.25.04a.685.685 0 00.43-.13c.12-.08.21-.197.27-.35l.35-.87-2.05-5.14h.96l1.51 4.23h.02l1.45-4.23h.9l-2.25 5.86z" fill="#909090"/><path fill-rule="evenodd" clip-rule="evenodd" d="M163 0a2 2 0 00-2 2v35a2 2 0 002 2h28.716L196 43.284 200.284 39H230a2 2 0 002-2V2a2 2 0 00-2-2h-67z" fill="#00B887"/><g filter="url(#filter0_d)"><circle cx="196" cy="55" r="8" fill="#fff"/></g><circle cx="196" cy="55" r="4" fill="#00B887"/><path d="M170.73 12.08l2.73-4.22h-1.08l-2.09 3.4-2.14-3.4h-1.13l2.76 4.22V15h.95v-2.92zm2.901.34c0-.313.04-.59.12-.83.087-.247.203-.453.35-.62.147-.167.317-.293.51-.38a1.567 1.567 0 011.25 0c.2.087.373.213.52.38.147.167.26.373.34.62.087.24.13.517.13.83 0 .313-.043.593-.13.84-.08.24-.193.443-.34.61-.147.16-.32.283-.52.37a1.567 1.567 0 01-1.25 0 1.549 1.549 0 01-.51-.37 1.877 1.877 0 01-.35-.61 2.719 2.719 0 01-.12-.84zm-.9 0c0 .38.053.733.16 1.06.107.327.267.613.48.86.213.24.477.43.79.57.313.133.673.2 1.08.2.413 0 .773-.067 1.08-.2.313-.14.577-.33.79-.57.213-.247.373-.533.48-.86.107-.327.16-.68.16-1.06s-.053-.733-.16-1.06a2.367 2.367 0 00-.48-.86 2.232 2.232 0 00-.79-.58 2.582 2.582 0 00-1.08-.21c-.407 0-.767.07-1.08.21-.313.14-.577.333-.79.58-.213.24-.373.527-.48.86-.107.327-.16.68-.16 1.06zM183.033 15V9.83h-.85v2.92c0 .233-.033.45-.1.65-.06.193-.153.363-.28.51-.126.147-.286.26-.48.34-.186.08-.41.12-.67.12-.326 0-.583-.093-.77-.28-.186-.187-.28-.44-.28-.76v-3.5h-.85v3.4c0 .28.027.537.08.77.06.227.16.423.3.59.14.167.324.297.55.39.227.087.51.13.85.13.38 0 .71-.073.99-.22.28-.153.51-.39.69-.71h.02V15h.8zm1.247-5.17V15h.85v-2.3c0-.333.033-.627.1-.88.067-.26.173-.48.32-.66.147-.18.34-.317.58-.41.24-.093.53-.14.87-.14v-.9c-.46-.013-.84.08-1.14.28-.3.2-.553.51-.76.93h-.02V9.83h-.8zm6.663 3.54h-.85c.014.32.08.593.2.82.12.22.28.4.48.54.2.133.43.23.69.29.26.06.534.09.82.09.26 0 .52-.027.78-.08a2 2 0 00.71-.26c.214-.127.384-.293.51-.5.134-.207.2-.467.2-.78a1.186 1.186 0 00-.53-1.03 1.856 1.856 0 00-.54-.27 5.996 5.996 0 00-.62-.17c-.2-.047-.4-.09-.6-.13-.2-.047-.38-.1-.54-.16a1.454 1.454 0 01-.4-.24.503.503 0 01-.15-.37c0-.133.034-.24.1-.32a.657.657 0 01.26-.2c.107-.053.224-.09.35-.11.134-.02.264-.03.39-.03.14 0 .277.017.41.05.14.027.267.073.38.14a.825.825 0 01.41.68h.85c-.02-.313-.086-.573-.2-.78a1.276 1.276 0 00-.46-.5 1.702 1.702 0 00-.65-.26 3.826 3.826 0 00-.81-.08c-.226 0-.456.03-.69.09-.226.053-.433.14-.62.26-.18.113-.33.263-.45.45a1.27 1.27 0 00-.17.67c0 .333.084.593.25.78.167.187.374.333.62.44.254.1.527.18.82.24.294.053.564.117.81.19.254.067.464.157.63.27.167.113.25.28.25.5 0 .16-.04.293-.12.4a.77.77 0 01-.31.23c-.12.053-.253.09-.4.11-.146.02-.286.03-.42.03-.173 0-.343-.017-.51-.05a1.58 1.58 0 01-.44-.16.99.99 0 01-.31-.31.99.99 0 01-.13-.48zm9.06 1.61c-.146.087-.35.13-.61.13-.22 0-.396-.06-.53-.18-.126-.127-.19-.33-.19-.61-.233.28-.506.483-.82.61-.306.12-.64.18-1 .18a2.76 2.76 0 01-.67-.08 1.56 1.56 0 01-.54-.25 1.267 1.267 0 01-.37-.44 1.59 1.59 0 01-.13-.67c0-.293.05-.533.15-.72.1-.187.23-.337.39-.45.167-.12.354-.21.56-.27.214-.06.43-.11.65-.15.234-.047.454-.08.66-.1.214-.027.4-.06.56-.1.16-.047.287-.11.38-.19.094-.087.14-.21.14-.37a.812.812 0 00-.11-.45.667.667 0 00-.27-.26c-.106-.06-.23-.1-.37-.12a2.683 2.683 0 00-.4-.03c-.36 0-.66.07-.9.21-.24.133-.37.39-.39.77h-.85c.014-.32.08-.59.2-.81.12-.22.28-.397.48-.53.2-.14.427-.24.68-.3.26-.06.537-.09.83-.09.234 0 .464.017.69.05.234.033.444.103.63.21.187.1.337.243.45.43.114.187.17.43.17.73v2.66c0 .2.01.347.03.44.027.093.107.14.24.14a.84.84 0 00.26-.05v.66zm-1.38-2.65a1.1 1.1 0 01-.42.18c-.173.033-.356.063-.55.09-.186.02-.376.047-.57.08a1.989 1.989 0 00-.52.14.969.969 0 00-.38.29c-.093.12-.14.287-.14.5 0 .14.027.26.08.36.06.093.134.17.22.23.094.06.2.103.32.13.12.027.247.04.38.04.28 0 .52-.037.72-.11.2-.08.364-.177.49-.29.127-.12.22-.247.28-.38.06-.14.09-.27.09-.39v-.87zm2.221-4.47V15h.85V7.86h-.85zm6.747 7.12c-.147.087-.35.13-.61.13-.22 0-.397-.06-.53-.18-.127-.127-.19-.33-.19-.61a2.07 2.07 0 01-.82.61c-.307.12-.64.18-1 .18-.233 0-.457-.027-.67-.08a1.543 1.543 0 01-.54-.25 1.256 1.256 0 01-.37-.44 1.576 1.576 0 01-.13-.67c0-.293.05-.533.15-.72.1-.187.23-.337.39-.45.167-.12.353-.21.56-.27.213-.06.43-.11.65-.15.233-.047.453-.08.66-.1.213-.027.4-.06.56-.1.16-.047.287-.11.38-.19a.481.481 0 00.14-.37.82.82 0 00-.11-.45.68.68 0 00-.27-.26c-.107-.06-.23-.1-.37-.12a2.693 2.693 0 00-.4-.03c-.36 0-.66.07-.9.21-.24.133-.37.39-.39.77h-.85c.013-.32.08-.59.2-.81.12-.22.28-.397.48-.53.2-.14.427-.24.68-.3.26-.06.537-.09.83-.09.233 0 .463.017.69.05.233.033.443.103.63.21.187.1.337.243.45.43.113.187.17.43.17.73v2.66c0 .2.01.347.03.44.027.093.107.14.24.14.073 0 .16-.017.26-.05v.66zm-1.38-2.65c-.107.08-.247.14-.42.18-.173.033-.357.063-.55.09-.187.02-.377.047-.57.08a1.978 1.978 0 00-.52.14.969.969 0 00-.38.29c-.093.12-.14.287-.14.5 0 .14.027.26.08.36.06.093.133.17.22.23.093.06.2.103.32.13.12.027.247.04.38.04.28 0 .52-.037.72-.11.2-.08.363-.177.49-.29.127-.12.22-.247.28-.38.06-.14.09-.27.09-.39v-.87zm2.141-2.5V15h.85v-2.3c0-.333.034-.627.1-.88.067-.26.174-.48.32-.66.147-.18.34-.317.58-.41.24-.093.53-.14.87-.14v-.9c-.46-.013-.84.08-1.14.28-.3.2-.553.51-.76.93h-.02V9.83h-.8zm5.39 5.86c-.1.253-.2.467-.3.64a1.51 1.51 0 01-.32.42.952.952 0 01-.39.24c-.14.053-.303.08-.49.08-.1 0-.2-.007-.3-.02a1.427 1.427 0 01-.29-.07v-.78c.074.033.157.06.25.08.1.027.184.04.25.04a.685.685 0 00.43-.13c.12-.08.21-.197.27-.35l.35-.87-2.05-5.14h.96l1.51 4.23h.02l1.45-4.23h.9l-2.25 5.86zM168.692 28.216H167c.08.944.372 1.66.876 2.148.504.488 1.204.764 2.1.828v1.02h.708v-1.02c.6-.04 1.092-.16 1.476-.36.384-.2.688-.428.912-.684.232-.256.392-.516.48-.78.088-.272.132-.496.132-.672 0-.2-.016-.428-.048-.684a1.836 1.836 0 00-.264-.768c-.152-.256-.388-.5-.708-.732-.32-.24-.776-.44-1.368-.6a6.508 6.508 0 00-.324-.084l-.288-.072v-2.124c.272 0 .504.112.696.336.192.224.292.496.3.816h1.704a2.75 2.75 0 00-.264-1.08 2.317 2.317 0 00-.588-.756 2.558 2.558 0 00-.84-.48c-.312-.12-.648-.2-1.008-.24v-.924h-.708v.924a3.85 3.85 0 00-1.044.216 2.672 2.672 0 00-.888.492 2.402 2.402 0 00-.624.78 2.437 2.437 0 00-.228 1.08c0 .4.068.736.204 1.008.136.264.316.488.54.672.232.176.492.32.78.432.288.104.58.196.876.276.08.016.152.036.216.06.072.016.128.032.168.048V29.8a1.676 1.676 0 01-.924-.504c-.248-.264-.368-.624-.36-1.08zm1.992 1.584v-2.304c.472.128.804.272.996.432.2.152.3.384.3.696 0 .192-.04.36-.12.504-.08.136-.184.252-.312.348-.12.096-.26.172-.42.228-.152.048-.3.08-.444.096zm-.708-6.168v1.956c-.384-.088-.66-.204-.828-.348-.168-.144-.252-.348-.252-.612 0-.168.028-.312.084-.432a.886.886 0 01.252-.312.992.992 0 01.348-.192c.128-.04.26-.06.396-.06zm6.62 2.88L173.608 31h2.112l1.908-2.964L179.5 31h2.244l-2.988-4.476 2.748-4.092h-2.064l-1.74 2.736-1.68-2.736h-2.184l2.76 4.08zm8.004 0L181.612 31h2.112l1.908-2.964L187.504 31h2.244l-2.988-4.476 2.748-4.092h-2.064l-1.74 2.736-1.68-2.736h-2.184l2.76 4.08zm8.004 0L189.616 31h2.112l1.908-2.964L195.508 31h2.244l-2.988-4.476 2.748-4.092h-2.064l-1.74 2.736-1.68-2.736h-2.184l2.76 4.08zm5.808 2.64V31h.864a.973.973 0 01-.048.372.97.97 0 01-.18.336c-.08.104-.176.192-.288.264a.893.893 0 01-.336.144v.864c.256-.04.496-.116.72-.228a1.99 1.99 0 00.6-.408c.168-.168.3-.368.396-.6.104-.224.156-.472.156-.744v-1.848h-1.884zm5.536-2.64L200.96 31h2.112l1.908-2.964L206.852 31h2.244l-2.988-4.476 2.748-4.092h-2.064l-1.74 2.736-1.68-2.736h-2.184l2.76 4.08zm8.003 0L208.963 31h2.112l1.908-2.964L214.855 31h2.244l-2.988-4.476 2.748-4.092h-2.064l-1.74 2.736-1.68-2.736h-2.184l2.76 4.08zm8.004 0L216.967 31h2.112l1.908-2.964L222.859 31h2.244l-2.988-4.476 2.748-4.092h-2.064l-1.74 2.736-1.68-2.736h-2.184l2.76 4.08z" fill="#fff"/><circle cx="7" cy="55" r="2" fill="#2D2D2D" fill-opacity=".25"/><circle cx="155" cy="55" r="2" fill="#6F6F6F"/><circle cx="304" cy="55" r="2" fill="#2D2D2D" fill-opacity=".25"/><defs><filter id="filter0_d" x="186" y="46" width="20" height="20" filterUnits="userSpaceOnUse" color-interpolation-filters="sRGB"><feFlood flood-opacity="0" result="BackgroundImageFix"/><feColorMatrix in="SourceAlpha" values="0 0 0 0 0 0 0 0 0 0 0 0 0 0 0 0 0 0 127 0"/><feOffset dy="1"/><feGaussianBlur stdDeviation="1"/><feColorMatrix values="0 0 0 0 0 0 0 0 0 0 0 0 0 0 0 0 0 0 0.15 0"/><feBlend in2="BackgroundImageFix" result="effect1_dropShadow"/><feBlend in="SourceGraphic" in2="effect1_dropShadow" result="shape"/></filter></defs></svg>